<svg width="484" height="566" viewBox="0 0 484 566" fill="none" xmlns="http://www.w3.org/2000/svg">
<mask id="mask0_158_1658" style="mask-type:alpha" maskUnits="userSpaceOnUse" x="-124" y="0" width="608" height="566">
<rect x="-124" width="608" height="566" fill="#212E5A"/>
</mask>
<g mask="url(#mask0_158_1658)">
<mask id="mask1_158_1658" style="mask-type:alpha" maskUnits="userSpaceOnUse" x="-334" y="-200" width="874" height="819">
<ellipse rx="394.382" ry="449.36" transform="matrix(-0.5 -0.866025 -0.866025 0.5 103.011 209.837)" fill="#EEF2FF"/>
</mask>
<g mask="url(#mask1_158_1658)">
<path d="M12.5454 -410.391L7.80157 -409.022L7.82219 -408.985C-38.7027 -395.195 -83.4525 -375.509 -125.495 -350.487C-167.609 -325.422 -206.641 -295.299 -241.639 -260.641L-277.533 -299.906C-239.003 -338.039 -196.601 -370.893 -151.309 -397.825C-105.946 -424.801 -57.2846 -446.151 -6.36469 -461.249L-6.23647 -461.276L-1.36432 -462.673L12.5454 -410.391ZM-419.422 -281.083L-197.033 -102.743C-193.534 -107.493 -189.973 -112.13 -186.336 -116.714C-135.117 -180.971 -68.0421 -231.501 9.57417 -261.563L27.5095 -210.565C-41.3596 -183.89 -100.859 -139.126 -146.234 -82.1288C-149.473 -78.0342 -152.67 -73.865 -155.79 -69.6428L-123.069 -43.3959C-88.0569 -90.7549 -43.3466 -128.436 6.97176 -154.32C38.3662 -170.478 71.9482 -181.982 106.631 -188.376L51.977 -519.45C40.599 -517.363 28.8525 -514.904 16.9991 -512.032C4.79695 -509.098 -6.71203 -506.036 -17.5279 -502.844C-89.0383 -481.643 -156.445 -448.683 -217.39 -405.585C-278.263 -362.53 -332.625 -309.418 -378.097 -247.833L-419.422 -281.083ZM220.569 166.206L342.214 107.185L343.127 109.272L250.562 154.179C259.923 176.753 259.989 201.202 252.364 222.727C245.337 242.647 231.682 260.095 212.782 271.25L212.404 271.778L206.376 274.718C191.428 281.946 175.151 284.601 159.365 282.778C143.43 280.946 128.105 274.763 115.198 264.384L147.192 221.086C152.663 225.45 158.946 228.079 165.271 228.792C171.652 229.521 178.214 228.498 184.319 225.61L184.627 225.475C193.689 221.101 200.218 213.179 203.47 203.999C206.706 194.879 206.573 184.507 202.413 175.071L220.569 166.206ZM-480.626 215.77L-522.11 217.211C-521.939 222.284 -521.731 227.335 -521.467 232.402C-518.75 285.116 -510.49 337.473 -496.763 388.472C-445.481 578.975 -325.239 729.807 -172.03 819.88C-110.904 855.815 -44.5722 882.038 24.7808 897.28L-40.1825 936.481C-95.2665 919.797 -148.14 896.552 -197.804 867.339C-362.531 770.528 -491.788 608.312 -546.949 403.425C-561.749 348.494 -570.618 292.175 -573.551 235.609C-576.522 178.02 -573.201 120.218 -563.956 63.2717L-379.227 94.9024L-375.951 95.4643L-335.708 102.339L-335.723 102.398L-327.842 103.765C-334.202 142.296 -336.399 181.351 -334.476 220.16C-332.552 258.968 -326.508 297.53 -316.423 335.097C-290.538 431.222 -239.603 515.466 -171.528 580.258C-103.473 645.014 -18.3715 690.323 75.8389 708.484L66.1285 762.078C-37.8274 742.033 -131.717 692.071 -206.762 620.634C-281.808 549.197 -337.995 456.226 -366.573 350.029C-377.772 308.455 -384.447 265.894 -386.54 223.056C-388.625 181.01 -386.261 138.967 -379.508 97.163L-512.873 74.3572C-520.297 120.748 -523.387 168.057 -522.091 214.909L-428.518 211.654C-427.814 236.912 -425.606 262.21 -421.92 287.412C-418.255 312.576 -413.107 337.393 -406.539 361.752C-366.907 508.913 -278.949 630.048 -164.405 709.955C-69.8449 775.938 42.8902 813.78 161.4 814.889L81.012 863.398C-18.4634 849.559 -112.219 811.96 -193.68 755.146C-318.063 668.335 -413.654 536.674 -456.725 376.705C-463.905 350.028 -469.51 322.998 -473.488 295.882C-477.423 269.536 -479.768 242.779 -480.626 215.77ZM690.217 495.782C694.1 488.61 697.864 481.312 701.459 473.966C765.13 344.456 785.66 192.001 750.701 41.8703L772.597 36.2237L841.626 18.4109C839.702 10.1648 837.628 1.90888 835.447 -6.28201C799.69 -139.156 729.003 -255.433 634.637 -344.529C540.307 -433.646 422.323 -495.45 291.896 -519.431L301.175 -573.113C441.399 -547.328 568.283 -480.841 669.712 -385.107C771.141 -289.372 847.121 -164.293 885.628 -21.3319C916.91 94.7813 921.685 217.631 899.538 336.42C897.167 349.099 894.514 361.7 891.543 374.244L826.688 413.381C835.659 384.772 842.952 355.633 848.426 326.148C867.074 226.047 865.399 121.883 842.155 20.5806L801.765 31.0163C834.592 174.171 821.167 319.053 770.513 447.279L690.197 495.744L690.217 495.782ZM447.654 642.153L446.778 640.74L441.868 632.803C535.245 569.885 603.539 479.048 640.964 376.227C678.405 273.348 685.078 158.322 655.128 47.1299C634.081 -31.0591 596.297 -101.885 545.778 -160.697C495.198 -219.62 431.827 -266.545 359.645 -296.953L379.412 -347.407C458.997 -313.901 528.846 -262.175 584.584 -197.205C640.399 -132.182 682.113 -54.0699 705.314 32.1764C738.352 154.845 730.989 281.784 689.66 395.373C670.32 448.506 643.532 498.717 609.993 544.241L447.675 642.19L447.654 642.153ZM66.5013 108.606C22.6301 167.981 33.0854 253.059 89.8885 298.571C118.3 321.346 152.871 329.901 185.86 325.375C218.849 320.849 250.214 303.167 272.121 273.472L313.518 306.678C282.767 348.33 238.763 373.092 192.492 379.461C146.22 385.83 97.7171 373.785 57.8943 341.869C-21.0369 278.55 -36.2749 160.571 23.7802 77.244L-8.99761 50.9814C-56.3998 116.519 -67.4907 203.2 -38.1 279.091C-15.0317 338.688 29.1276 382.871 81.8464 406.01C134.283 429.071 195.253 431.302 252.366 407.242L254.14 406.47L324.336 587.402C390.537 559.101 447.474 513.594 490.71 456.792C556.229 370.716 590.398 258.71 577.593 141.153C564.825 23.5748 507.551 -77.2519 425.339 -145.211C343.05 -213.223 235.782 -248.441 123.016 -234.649L117.093 -288.664C244.132 -304.151 364.975 -264.531 457.663 -187.911C550.428 -111.239 614.98 2.41788 629.392 134.833C643.768 267.271 605.328 393.451 531.517 490.404C482.7 554.506 418.434 605.879 343.85 637.795L364.894 691.994L362.957 693.163L341.784 638.643C304.092 654.569 263.749 665.524 221.453 670.689L215.529 616.674C253.039 612.107 288.797 602.376 322.254 588.309L271.568 457.674C201.212 487.287 126.029 484.523 61.3343 456.067C-3.55091 427.528 -57.9589 373.104 -86.4405 299.551C-122.784 205.705 -109.059 98.769 -50.2399 17.8807L-83.1155 -8.47222C-155.335 90.7563 -168.628 224.709 -115.636 337.526C-79.9785 413.419 -16.4585 474.987 66.417 504.318L49.4548 555.867C-47.0174 521.749 -120.93 450.027 -162.494 361.621C-224.376 230.027 -208.619 73.7815 -124.414 -41.5886L-157.136 -67.8355C-265.543 80.6063 -270.448 285.851 -166.453 439.22C-106.273 527.99 -13.7022 592.883 97.0851 613.087L113.28 517.203L115.452 517.585C107.057 567.498 98.7275 617.272 90.3679 667.164C-35.5488 644.941 -140.777 571.508 -209.039 470.791C-326.39 297.658 -320.683 66.2451 -198.357 -100.899L-420.746 -279.238L-419.401 -281.045C-370.553 -347.256 -312.096 -404.382 -246.637 -450.652C-181.25 -496.878 -108.718 -532.335 -31.6278 -555.21C-18.6786 -559.042 -6.27727 -562.395 5.56085 -565.208C17.7271 -568.119 30.279 -570.766 43.1805 -573.126L45.3453 -573.536L108.832 -188.808C167.354 -199.235 229.063 -195.06 289.147 -173.827L272.185 -122.278C220.705 -140.49 167.835 -144.076 117.679 -135.214L124.688 -92.6545C198.954 -105.663 271.314 -86.3627 328.509 -44.4714C386.13 -2.24019 428.237 62.9909 441.165 141.201C449.512 191.813 444.609 242.854 428.138 289.577C411.713 336.123 383.699 378.313 345.813 411.379L312.422 369.807C343.098 343.083 365.84 308.753 379.223 270.812C392.54 233.011 396.553 191.616 389.758 150.57C379.306 87.1424 345.096 34.218 298.339 -0.0346146C251.659 -34.2343 192.318 -49.7935 131.427 -38.6339L129.489 -50.4553L115.55 -134.825C85.7307 -129.324 56.897 -119.441 29.9362 -105.561C-13.2267 -83.3478 -51.653 -51.0013 -81.6778 -10.2855C-32.2641 29.3824 17.0518 68.9599 66.5013 108.606Z" fill="#243368"/>
</g>
</g>
</svg>
