<svg width="824" height="895" viewBox="0 0 824 895" fill="none" xmlns="http://www.w3.org/2000/svg">
<mask id="mask0_0_1" style="mask-type:alpha" maskUnits="userSpaceOnUse" x="0" y="0" width="857" height="895">
<rect width="857" height="895" fill="#C4C4C4"/>
</mask>
<g mask="url(#mask0_0_1)">
<path opacity="0.1" d="M132.689 607.951L131.886 604.858L131.912 604.858C124.225 574.404 120.287 543.117 120.1 511.695C119.912 480.219 123.448 448.905 130.734 418.452L97.9483 410.462C89.9394 443.982 86.0288 478.04 86.243 511.883C86.4573 545.78 90.7698 579.785 99.1805 613.117L99.2073 613.197L100.038 616.372L132.689 607.951ZM62.0021 324.805L230.189 394.482C228.769 397.925 227.43 401.369 226.144 404.839C208.198 453.613 202.787 507.041 211.814 560.038L245.081 554.281C237.072 507.256 241.84 459.881 257.778 416.649C258.929 413.556 260.135 410.462 261.394 407.395L286.143 417.645C272.028 452.053 266.269 488.909 268.679 525.254C270.179 547.932 274.894 570.396 282.715 591.891L86.8056 664.016C84.2341 656.967 81.7431 649.596 79.4395 642.037C77.0556 634.262 74.9663 626.837 73.1717 619.761C61.3593 572.952 57.2075 524.796 60.6093 477.126C64.011 429.509 74.9395 382.43 93.3144 337.718L62.0021 324.805ZM510.526 545.807L518.267 632.567L519.687 632.432L513.794 566.414C528.981 564.666 542.16 557.106 551.267 546.13C559.704 535.988 564.659 522.886 564.526 508.79L564.686 508.413L564.311 504.109C563.347 493.455 559.49 483.475 553.383 475.162C547.222 466.768 538.919 460.07 529.142 456.034L516.231 487.483C520.356 489.205 523.812 491.922 526.249 495.258C528.713 498.621 530.294 502.629 530.722 506.96L530.749 507.175C531.338 513.632 529.195 519.766 525.312 524.447C521.454 529.101 515.829 532.248 509.401 532.84L510.526 545.807ZM309.5 136.005L296.804 112.223C299.59 110.744 302.375 109.291 305.188 107.865C334.438 93.0151 365.295 81.3933 397.196 73.2688C516.365 42.923 636.579 63.6915 734.801 121.881C773.988 145.098 809.64 174.26 840.363 208.533L840.363 159.813C813.497 134.014 783.819 111.497 751.971 92.6384C646.382 30.0637 517.115 7.76177 388.946 40.3942C354.58 49.1375 321.393 61.647 290.001 77.5732C258.045 93.7952 228.019 113.622 200.376 136.516L277.385 230.593L278.751 232.261L295.518 252.761L295.545 252.734L298.84 256.742C317.509 241.193 337.813 227.822 359.322 216.846C380.83 205.87 403.544 197.288 427.035 191.289C487.169 175.982 549.044 178.457 606.016 196.616C662.962 214.775 714.98 248.564 755.346 295.912L781.033 273.798C736.489 221.554 679.114 184.268 616.302 164.252C553.49 144.237 485.214 141.52 418.785 158.441C392.777 165.059 367.705 174.529 343.973 186.662C320.67 198.553 298.813 212.945 278.51 229.732L222.93 161.804C245.483 143.215 269.938 126.777 295.572 112.95L324.206 166.593C338.027 159.141 352.357 152.523 367.116 146.766C381.848 141.009 396.875 136.193 412.116 132.319C504.178 108.887 597.927 120.724 678.123 160.325C744.337 193.011 801.31 244.663 840.39 310.977L840.39 250.689C800.64 199.037 749.962 157.984 692.935 129.817C605.829 86.8275 503.937 73.9682 403.866 99.4447C387.178 103.695 370.813 108.941 354.929 115.129C339.473 121.101 324.313 128.096 309.5 136.005ZM840.39 707.57C837.792 711.982 835.086 716.367 832.301 720.672C783.283 796.725 707.909 855.64 615.766 882.623L619.838 896.693L632.668 941.055C627.606 942.535 622.489 943.934 617.373 945.252C534.258 966.424 448.732 962.792 370.143 937.397C291.554 912.028 219.983 864.868 164.725 798.957L138.85 820.856C198.26 891.716 275.242 942.427 359.697 969.733C444.151 997.039 536.133 1000.91 625.57 978.153C698.212 959.672 765.872 924.187 822.604 874.822C828.658 869.549 834.577 864.142 840.363 858.573L840.363 809.934C827.881 823.869 814.569 837.024 800.479 849.265C752.667 890.856 696.069 922.277 634.007 940.679L626.507 914.718C714.203 888.703 787.81 836.136 840.363 767.805L840.363 707.57L840.39 707.57ZM840.39 525.657L839.345 525.603L833.479 525.308C829.943 597.379 803.238 664.016 760.06 717.013C716.855 770.037 657.123 809.53 587.561 827.232C538.651 839.687 488.267 840.441 440.214 830.299C392.08 820.156 346.25 799.092 306.447 767.939L285.715 794.734C329.59 829.088 380.107 852.305 433.169 863.469C486.285 874.66 541.865 873.853 595.811 860.106C672.552 840.575 738.471 796.994 786.176 738.454C808.488 711.068 826.81 680.399 840.417 647.39L840.417 525.657L840.39 525.657ZM429.5 477.045C447.205 433.921 496.383 413.367 539.32 431.177C560.802 440.081 576.633 456.868 584.909 476.83C593.186 496.791 593.856 519.927 584.99 541.476L616.302 554.443C628.73 524.205 627.766 491.76 616.168 463.755C604.57 435.75 582.338 412.21 552.231 399.728C492.526 375.005 424.089 403.091 398.75 462.76L373.973 452.483C393.848 405.458 436.892 372.287 487.276 365.239C526.838 359.697 564.954 370.808 594.525 393.271C623.963 415.6 644.963 449.201 650.561 488.801L650.721 490.039L770.881 473.305C777.149 519.335 771.149 565.5 754.623 607.467C729.578 671.064 680.4 725.084 612.981 754.407C545.561 783.758 472.705 782.87 409.437 757.743C346.116 732.59 292.331 683.197 263.135 615.484L232.144 628.935C265.063 705.203 325.625 760.864 396.955 789.192C468.339 817.547 550.463 818.542 626.4 785.506C702.337 752.443 757.756 691.617 785.962 619.977C804.604 572.602 811.381 520.492 804.336 468.624L840.336 463.621L840.336 462.168L804.122 467.199C800.453 441.05 793.247 414.954 782.292 389.559L751.301 403.01C761.024 425.527 767.399 448.663 770.694 471.853L683.935 483.932C677.025 435.158 651.123 393.729 614.802 366.181C578.374 338.552 531.419 324.859 482.589 331.692C420.285 340.408 367.196 381.354 342.768 439.57L317.911 429.267C347.857 357.814 415.625 308.717 493.544 303.471C545.963 299.947 599.722 316.546 642.418 354.048L664.65 328.491C614.963 284.828 552.365 265.539 491.294 269.628C400.384 275.708 321.42 333.118 286.679 416.326L261.929 406.077C306.608 298.979 415.464 232.449 531.767 243.291C599.079 249.559 664.061 281.465 710.908 337.503L664.57 376.404L665.48 377.507C689.614 357.276 713.694 337.126 737.828 316.923C684.98 253.003 611.293 216.631 534.928 209.529C403.652 197.315 280.974 272.426 230.751 393.164L62.5646 323.487L62.0289 324.805C42.2612 372.852 30.5023 423.483 26.8595 474.678C23.2167 525.819 27.6899 577.633 40.413 628.101C42.5558 636.575 44.779 644.592 47.1094 652.125C49.4933 659.873 52.1451 667.755 55.0647 675.745L55.5468 677.09L283.197 593.263C296.59 629.419 318.875 662.832 349.813 690.03L372.045 664.473C345.527 641.176 326.429 612.552 314.911 581.587L340.09 572.306C357.206 618.12 391.089 652.824 432.205 671.979C473.642 691.268 522.419 694.684 568.704 677.655C598.65 666.625 624.525 648.009 644.32 624.227C664.034 600.526 677.641 571.66 683.132 540.077L649.918 534.212C645.498 559.769 634.409 583.228 618.338 602.544C602.32 621.779 581.347 636.898 557.052 645.83C519.526 659.658 479.937 656.86 446.321 641.203C412.759 625.572 385.116 597.029 371.348 559.312L364.357 561.895L314.429 580.269C307.706 561.787 303.661 542.498 302.375 523.021C300.313 491.841 305.242 460.177 317.402 430.639C354.795 446.107 392.107 461.549 429.5 477.045Z" fill="white"/>
<path opacity="0.1" d="M132.689 607.951L131.886 604.858L131.912 604.858C124.225 574.404 120.287 543.117 120.1 511.695C119.912 480.219 123.448 448.905 130.734 418.452L97.9483 410.462C89.9394 443.982 86.0288 478.04 86.243 511.883C86.4573 545.78 90.7698 579.785 99.1805 613.117L99.2073 613.197L100.038 616.372L132.689 607.951ZM62.0021 324.805L230.189 394.482C228.769 397.925 227.43 401.369 226.144 404.839C208.198 453.613 202.787 507.041 211.814 560.038L245.081 554.281C237.072 507.256 241.84 459.881 257.778 416.649C258.929 413.556 260.135 410.462 261.394 407.395L286.143 417.645C272.028 452.053 266.269 488.909 268.679 525.254C270.179 547.932 274.894 570.396 282.715 591.891L86.8056 664.016C84.2341 656.967 81.7431 649.596 79.4395 642.037C77.0556 634.262 74.9663 626.837 73.1717 619.761C61.3593 572.952 57.2075 524.796 60.6093 477.126C64.011 429.509 74.9395 382.43 93.3144 337.718L62.0021 324.805ZM510.526 545.807L518.267 632.567L519.687 632.432L513.794 566.414C528.981 564.666 542.16 557.106 551.267 546.13C559.704 535.988 564.659 522.886 564.526 508.79L564.686 508.413L564.311 504.109C563.347 493.455 559.49 483.475 553.383 475.162C547.222 466.768 538.919 460.07 529.142 456.034L516.231 487.483C520.356 489.205 523.812 491.922 526.249 495.258C528.713 498.621 530.294 502.629 530.722 506.96L530.749 507.175C531.338 513.632 529.195 519.766 525.312 524.447C521.454 529.101 515.829 532.248 509.401 532.84L510.526 545.807ZM309.5 136.005L296.804 112.223C299.59 110.744 302.375 109.291 305.188 107.865C334.438 93.0151 365.295 81.3933 397.196 73.2688C516.365 42.923 636.579 63.6915 734.801 121.881C773.988 145.098 809.64 174.26 840.363 208.533L840.363 159.813C813.497 134.014 783.819 111.497 751.971 92.6384C646.382 30.0637 517.115 7.76177 388.946 40.3942C354.58 49.1375 321.393 61.647 290.001 77.5732C258.045 93.7952 228.019 113.622 200.376 136.516L277.385 230.593L278.751 232.261L295.518 252.761L295.545 252.734L298.84 256.742C317.509 241.193 337.813 227.822 359.322 216.846C380.83 205.87 403.544 197.288 427.035 191.289C487.169 175.982 549.044 178.457 606.016 196.616C662.962 214.775 714.98 248.564 755.346 295.912L781.033 273.798C736.489 221.554 679.114 184.268 616.302 164.252C553.49 144.237 485.214 141.52 418.785 158.441C392.777 165.059 367.705 174.529 343.973 186.662C320.67 198.553 298.813 212.945 278.51 229.732L222.93 161.804C245.483 143.215 269.938 126.777 295.572 112.95L324.206 166.593C338.027 159.141 352.357 152.523 367.116 146.766C381.848 141.009 396.875 136.193 412.116 132.319C504.178 108.887 597.927 120.724 678.123 160.325C744.337 193.011 801.31 244.663 840.39 310.977L840.39 250.689C800.64 199.037 749.962 157.984 692.935 129.817C605.829 86.8275 503.937 73.9682 403.866 99.4447C387.178 103.695 370.813 108.941 354.929 115.129C339.473 121.101 324.313 128.096 309.5 136.005ZM840.39 707.57C837.792 711.982 835.086 716.367 832.301 720.672C783.283 796.725 707.909 855.64 615.766 882.623L619.838 896.693L632.668 941.055C627.606 942.535 622.489 943.934 617.373 945.252C534.258 966.424 448.732 962.792 370.143 937.397C291.554 912.028 219.983 864.868 164.725 798.957L138.85 820.856C198.26 891.716 275.242 942.427 359.697 969.733C444.151 997.039 536.133 1000.91 625.57 978.153C698.212 959.672 765.872 924.187 822.604 874.822C828.658 869.549 834.577 864.142 840.363 858.573L840.363 809.934C827.881 823.869 814.569 837.024 800.479 849.265C752.667 890.856 696.069 922.277 634.007 940.679L626.507 914.718C714.203 888.703 787.81 836.136 840.363 767.805L840.363 707.57L840.39 707.57ZM840.39 525.657L839.345 525.603L833.479 525.308C829.943 597.379 803.238 664.016 760.06 717.013C716.855 770.037 657.123 809.53 587.561 827.232C538.651 839.687 488.267 840.441 440.214 830.299C392.08 820.156 346.25 799.092 306.447 767.939L285.715 794.734C329.59 829.088 380.107 852.305 433.169 863.469C486.285 874.66 541.865 873.853 595.811 860.106C672.552 840.575 738.471 796.994 786.176 738.454C808.488 711.068 826.81 680.399 840.417 647.39L840.417 525.657L840.39 525.657ZM429.5 477.045C447.205 433.921 496.383 413.367 539.32 431.177C560.802 440.081 576.633 456.868 584.909 476.83C593.186 496.791 593.856 519.927 584.99 541.476L616.302 554.443C628.73 524.205 627.766 491.76 616.168 463.755C604.57 435.75 582.338 412.21 552.231 399.728C492.526 375.005 424.089 403.091 398.75 462.76L373.973 452.483C393.848 405.458 436.892 372.287 487.276 365.239C526.838 359.697 564.954 370.808 594.525 393.271C623.963 415.6 644.963 449.201 650.561 488.801L650.721 490.039L770.881 473.305C777.149 519.335 771.149 565.5 754.623 607.467C729.578 671.064 680.4 725.084 612.981 754.407C545.561 783.758 472.705 782.87 409.437 757.743C346.116 732.59 292.331 683.197 263.135 615.484L232.144 628.935C265.063 705.203 325.625 760.864 396.955 789.192C468.339 817.547 550.463 818.542 626.4 785.506C702.337 752.443 757.756 691.617 785.962 619.977C804.604 572.602 811.381 520.492 804.336 468.624L840.336 463.621L840.336 462.168L804.122 467.199C800.453 441.05 793.247 414.954 782.292 389.559L751.301 403.01C761.024 425.527 767.399 448.663 770.694 471.853L683.935 483.932C677.025 435.158 651.123 393.729 614.802 366.181C578.374 338.552 531.419 324.859 482.589 331.692C420.285 340.408 367.196 381.354 342.768 439.57L317.911 429.267C347.857 357.814 415.625 308.717 493.544 303.471C545.963 299.947 599.722 316.546 642.418 354.048L664.65 328.491C614.963 284.828 552.365 265.539 491.294 269.628C400.384 275.708 321.42 333.118 286.679 416.326L261.929 406.077C306.608 298.979 415.464 232.449 531.767 243.291C599.079 249.559 664.061 281.465 710.908 337.503L664.57 376.404L665.48 377.507C689.614 357.276 713.694 337.126 737.828 316.923C684.98 253.003 611.293 216.631 534.928 209.529C403.652 197.315 280.974 272.426 230.751 393.164L62.5646 323.487L62.0289 324.805C42.2612 372.852 30.5023 423.483 26.8595 474.678C23.2167 525.819 27.6899 577.633 40.413 628.101C42.5558 636.575 44.779 644.592 47.1094 652.125C49.4933 659.873 52.1451 667.755 55.0647 675.745L55.5468 677.09L283.197 593.263C296.59 629.419 318.875 662.832 349.813 690.03L372.045 664.473C345.527 641.176 326.429 612.552 314.911 581.587L340.09 572.306C357.206 618.12 391.089 652.824 432.205 671.979C473.642 691.268 522.419 694.684 568.704 677.655C598.65 666.625 624.525 648.009 644.32 624.227C664.034 600.526 677.641 571.66 683.132 540.077L649.918 534.212C645.498 559.769 634.409 583.228 618.338 602.544C602.32 621.779 581.347 636.898 557.052 645.83C519.526 659.658 479.937 656.86 446.321 641.203C412.759 625.572 385.116 597.029 371.348 559.312L364.357 561.895L314.429 580.269C307.706 561.787 303.661 542.498 302.375 523.021C300.313 491.841 305.242 460.177 317.402 430.639C354.795 446.107 392.107 461.549 429.5 477.045Z" fill="#102A84"/>
</g>
<g clip-path="url(#clip0_0_1)">
<path fill-rule="evenodd" clip-rule="evenodd" d="M854.22 589.94C853.964 590.839 853.727 591.752 853.471 592.652L838.462 595.394L833.298 593.768L854.22 589.94ZM855.148 586.45L826.648 591.674L821.484 590.047L855.831 583.752C855.594 584.665 855.371 585.558 855.148 586.45ZM856.678 580.297L814.855 587.967L813.594 587.558C813.795 586.882 814.009 586.185 814.21 585.509L857.326 577.606C857.124 578.512 856.901 579.405 856.678 580.297ZM858.119 574.145L815.227 582.018C815.484 581.119 815.741 580.219 815.977 579.306L858.7 571.468C858.511 572.353 858.308 573.259 858.119 574.145ZM859.425 568.02L816.905 575.817C817.128 574.924 817.364 574.012 817.587 573.119L859.959 565.371C859.79 566.27 859.614 567.135 859.425 568.02ZM860.616 561.938L818.434 569.664C818.657 568.771 818.86 567.866 819.049 566.98L861.096 559.282C860.94 560.16 860.785 561.039 860.616 561.938ZM861.686 555.862L819.828 563.539C820.018 562.653 820.22 561.748 820.409 560.862L862.131 553.214C861.976 554.092 861.841 554.984 861.686 555.862ZM862.653 549.808L821.101 557.422C821.269 556.523 821.445 555.658 821.614 554.759L863.044 547.153C862.923 548.025 862.788 548.916 862.653 549.808ZM863.52 543.775L822.237 551.333C822.393 550.454 822.561 549.555 822.696 548.663L863.843 541.134C863.742 542.019 863.621 542.89 863.52 543.775ZM864.264 537.75L823.252 545.251C823.387 544.359 823.508 543.488 823.643 542.596L864.553 535.116C864.453 536 864.365 536.865 864.264 537.75ZM864.894 531.766L824.139 539.231C824.261 538.36 824.382 537.488 824.483 536.603L865.149 529.139C865.062 530.003 864.974 530.868 864.894 531.766ZM865.435 525.782L824.904 533.219C825.005 532.334 825.093 531.47 825.194 530.585L865.623 523.169C865.569 524.027 865.502 524.905 865.435 525.782ZM865.854 519.807L825.526 527.201C825.614 526.337 825.681 525.459 825.769 524.595L865.995 517.221C865.962 518.092 865.908 518.949 865.854 519.807ZM866.179 513.886L826.054 521.239C826.121 520.361 826.175 519.503 826.242 518.625L866.3 511.287C866.267 512.158 866.213 513.015 866.179 513.886ZM866.416 507.966L826.46 515.283C826.514 514.426 826.548 513.555 826.602 512.697L866.469 505.381C866.449 506.231 866.429 507.082 866.416 507.966ZM866.531 502.053L826.765 509.349C826.798 508.478 826.818 507.628 826.852 506.757L866.55 499.475C866.551 500.339 866.531 501.189 866.531 502.053ZM866.545 496.162L826.914 503.429C826.934 502.579 826.933 501.715 826.967 500.844L866.53 493.591C866.551 494.468 866.565 495.311 866.545 496.162ZM866.477 490.305L826.982 497.544C826.981 496.681 826.981 495.817 826.967 494.973L866.429 487.741C866.442 488.584 866.477 489.441 866.477 490.305ZM866.322 484.448L826.948 491.68C826.935 490.837 826.913 489.96 826.9 489.116L866.226 481.912C866.24 482.755 866.274 483.612 866.322 484.448ZM866.052 478.633L826.793 485.824C826.758 484.967 826.745 484.124 826.697 483.287L865.902 476.09C865.949 476.927 865.997 477.763 866.052 478.633ZM865.693 472.819L826.535 479.988C826.488 479.152 826.433 478.282 826.385 477.446L865.489 470.27C865.557 471.119 865.625 471.969 865.693 472.819ZM865.212 467.012L826.143 474.181C826.075 473.331 826.027 472.495 825.959 471.645L864.995 464.483C865.076 465.313 865.144 466.163 865.212 467.012ZM864.685 461.233L825.683 468.388C825.615 467.538 825.534 466.709 825.432 465.866L864.4 458.718C864.502 459.561 864.583 460.39 864.685 461.233ZM864.035 455.461L825.101 462.602C824.999 461.76 824.918 460.93 824.816 460.087L863.716 452.954C863.818 453.796 863.92 454.639 864.035 455.461ZM863.305 449.724L824.418 456.838C824.316 455.995 824.2 455.173 824.078 454.317L862.952 447.223C863.067 448.046 863.169 448.889 863.305 449.724ZM862.452 443.995L823.586 451.122C823.45 450.286 823.335 449.464 823.199 448.628L862.065 441.501C862.201 442.337 862.337 443.172 862.452 443.995ZM861.532 438.279L822.699 445.399C822.563 444.563 822.415 443.748 822.279 442.912L861.111 435.793C861.247 436.628 861.396 437.444 861.532 438.279ZM860.51 432.585L821.698 439.718C821.549 438.903 821.393 438.054 821.223 437.225L860.056 430.105C860.192 430.941 860.361 431.77 860.51 432.585ZM859.408 426.925L820.588 434.024C820.419 433.196 820.249 432.367 820.066 431.559L858.899 424.439C859.069 425.268 859.238 426.096 859.408 426.925ZM858.196 421.252L819.384 428.385C819.202 427.577 819.011 426.735 818.829 425.927L857.641 418.793C857.844 419.615 858.027 420.424 858.196 421.252ZM856.904 415.614L818.072 422.734C817.868 421.912 817.665 421.09 817.461 420.269L856.328 413.142C856.518 413.984 856.721 414.806 856.904 415.614ZM855.524 409.976L816.644 417.124C816.441 416.302 816.203 415.487 816 414.665L854.9 407.532C855.104 408.353 855.307 409.175 855.524 409.976ZM854.049 404.393L815.115 411.534C814.878 410.72 814.641 409.905 814.404 409.09L853.371 401.942C853.609 402.757 853.825 403.558 854.049 404.393ZM852.466 398.798L813.477 405.932C813.24 405.118 812.969 404.31 812.732 403.495L851.754 396.354C851.991 397.169 852.229 397.983 852.466 398.798ZM850.815 393.216L811.759 400.365C811.488 399.557 811.237 398.763 810.979 397.935L850.036 390.786C850.307 391.594 850.557 392.388 850.815 393.216ZM849.042 387.643L809.905 394.826C809.634 394.018 809.363 393.21 809.058 392.41L848.249 385.233C848.52 386.041 848.791 386.848 849.042 387.643ZM847.209 382.117L807.97 389.321C807.665 388.52 807.394 387.712 807.089 386.911L846.362 379.701C846.633 380.508 846.917 381.296 847.209 382.117ZM845.253 376.598L805.893 383.81C805.588 383.009 805.283 382.208 804.944 381.415L844.372 374.189C844.657 374.976 844.962 375.777 845.253 376.598ZM843.21 371.08L803.748 378.313C803.409 377.52 803.104 376.719 802.765 375.925L842.295 368.678C842.6 369.479 842.905 370.28 843.21 371.08ZM841.051 365.604L801.454 372.865C801.116 372.071 800.777 371.278 800.417 370.471L840.082 363.196C840.421 363.989 840.747 364.803 841.051 365.604ZM838.826 360.142L799.072 367.417C798.713 366.61 798.361 365.837 797.989 365.05L837.823 357.741C838.161 358.534 838.5 359.328 838.826 360.142ZM836.491 354.667L796.569 361.977C796.196 361.191 795.824 360.404 795.451 359.618L835.441 352.293C835.8 353.1 836.139 353.894 836.491 354.667ZM834.062 349.247L793.971 356.592C793.578 355.792 793.192 355.026 792.786 354.246L832.978 346.88C833.33 347.653 833.703 348.44 834.062 349.247ZM831.524 343.814L791.23 351.202C790.824 350.422 790.418 349.642 790.011 348.863L830.394 341.474C830.779 342.241 831.152 343.027 831.524 343.814ZM828.893 338.436L788.396 345.866C787.969 345.073 787.549 344.313 787.109 343.541L827.708 336.09C828.093 336.856 828.5 337.636 828.893 338.436ZM826.152 333.045L785.431 340.503C784.991 339.731 784.551 338.958 784.09 338.172L824.933 330.706C825.339 331.486 825.746 332.265 826.152 333.045ZM823.331 327.689L782.34 335.203C781.879 334.417 781.426 333.665 780.952 332.899L822.031 325.384C822.464 326.123 822.891 326.916 823.331 327.689ZM820.374 322.36L779.146 329.924C778.672 329.158 778.178 328.379 777.704 327.614L819.046 320.009C819.507 320.795 819.934 321.588 820.374 322.36ZM817.309 317.019L775.789 324.626C775.295 323.847 774.787 323.088 774.279 322.33L815.954 314.708C816.394 315.481 816.855 316.267 817.309 317.019ZM814.149 311.733L772.326 319.403C771.818 318.644 771.289 317.872 770.782 317.113L812.74 309.416C813.214 310.181 813.675 310.967 814.149 311.733ZM810.867 306.454L768.719 314.174C768.177 313.422 767.649 312.65 767.107 311.899L809.391 304.151C809.899 304.91 810.393 305.689 810.867 306.454ZM807.484 301.197L764.998 308.986C764.436 308.221 763.894 307.47 763.319 306.725L805.974 298.901C806.482 299.659 806.99 300.418 807.484 301.197ZM803.979 295.947L761.121 303.814C760.545 303.069 759.97 302.325 759.374 301.567L802.422 293.678C802.93 294.437 803.471 295.188 803.979 295.947ZM800.359 290.739L757.088 298.656C756.492 297.898 755.882 297.16 755.273 296.423L798.727 288.45C799.276 289.235 799.818 289.987 800.359 290.739ZM796.604 285.558L752.906 293.546C752.276 292.795 751.667 292.058 751.024 291.327L794.904 283.284C795.48 284.028 796.042 284.793 796.604 285.558ZM792.727 280.386L748.576 288.485C747.933 287.754 747.283 286.99 746.627 286.28L791.001 278.152C791.59 278.876 792.165 279.621 792.727 280.386ZM788.728 275.221L744.083 283.405C743.419 282.661 742.742 281.938 742.066 281.214L786.934 273.001C787.543 273.738 788.119 274.483 788.728 275.221ZM784.601 270.117L739.428 278.394C738.731 277.657 738.033 276.92 737.322 276.203L782.732 267.878C783.375 268.609 783.971 269.367 784.601 270.117ZM780.331 265.009L734.597 273.384C733.865 272.654 733.155 271.937 732.423 271.207L778.428 262.776C779.058 263.527 779.688 264.278 780.331 265.009ZM775.913 259.948L729.57 268.449C728.825 267.74 728.06 267.017 727.316 266.307L773.95 257.763C774.586 258.46 775.249 259.204 775.913 259.948ZM771.352 254.882L724.346 263.503C723.58 262.78 722.782 262.064 722.003 261.362L769.314 252.678C769.998 253.435 770.675 254.158 771.352 254.882ZM766.63 249.885L718.905 258.619C718.107 257.904 717.274 257.195 716.462 256.499L764.524 247.694C765.235 248.411 765.932 249.148 766.63 249.885ZM761.764 244.882L713.276 253.757C712.443 253.049 711.597 252.36 710.743 251.638L759.604 242.685C760.322 243.435 761.054 244.165 761.764 244.882ZM756.751 239.927L707.43 248.958C706.563 248.256 705.663 247.561 704.796 246.859L754.489 237.752C755.241 238.495 755.985 239.204 756.751 239.927ZM751.534 235.015L701.313 244.214C700.413 243.519 699.479 242.832 698.565 242.157L749.192 232.873C749.97 233.576 750.748 234.278 751.534 235.015ZM746.141 230.103L694.953 239.486C693.998 238.785 693.05 238.118 692.082 237.437L743.731 227.976C744.53 228.692 745.329 229.408 746.141 230.103ZM740.565 225.248L688.288 234.821C687.286 234.147 686.284 233.474 685.282 232.8L738.054 223.142C738.921 223.843 739.733 224.539 740.565 225.248ZM734.787 220.434L681.339 230.233C680.303 229.566 679.247 228.886 678.198 228.239L732.174 218.349C733.075 219.044 733.954 219.725 734.787 220.434ZM728.819 215.642L674.078 225.674C672.988 225.001 671.885 224.348 670.782 223.695L726.118 213.558C727.039 214.266 727.919 214.947 728.819 215.642ZM722.614 210.899L666.446 221.192C665.288 220.533 664.151 219.887 662.98 219.248L719.832 208.849C720.767 209.537 721.68 210.212 722.614 210.899ZM716.173 206.206L658.421 216.774C657.216 216.142 655.991 215.497 654.786 214.865L713.282 204.143C714.271 204.837 715.218 205.505 716.173 206.206ZM709.495 201.561L649.977 212.46C648.705 211.842 647.411 211.211 646.118 210.58L706.489 199.54C707.504 200.193 708.506 200.867 709.495 201.561ZM702.539 196.939L641.018 208.218C639.657 207.601 638.297 206.984 636.923 206.387L699.411 194.925C700.467 195.605 701.503 196.272 702.539 196.939ZM302.482 261.966L302.342 261.819L302.714 261.742L302.482 261.966ZM695.299 192.393L631.498 204.075C630.049 203.458 628.594 202.896 627.132 202.3L692.036 190.408C693.126 191.081 694.209 191.72 695.299 192.393ZM307.283 257.603L299.738 258.991L297.7 256.787L310.99 254.348C309.731 255.438 308.507 256.52 307.283 257.603ZM687.734 187.897L621.335 200.065C619.784 199.469 618.208 198.915 616.665 198.353L684.357 185.953C685.473 186.585 686.61 187.231 687.734 187.897ZM315.985 250.139L295.097 253.96L293.059 251.755L320.084 246.82C318.704 247.917 317.344 249.028 315.985 250.139ZM679.831 183.471L610.386 196.182C608.817 195.661 607.248 195.14 605.666 194.64L605.474 194.574L605.358 194.528L676.277 181.529C677.468 182.181 678.639 182.819 679.831 183.471ZM325.62 242.498L290.442 248.948L288.404 246.744L330.193 239.081C328.657 240.193 327.128 241.339 325.62 242.498ZM671.569 179.102L598.538 192.469C596.684 191.937 594.85 191.418 593.002 190.919L667.812 177.202C669.071 177.84 670.31 178.464 671.569 179.102ZM336.427 234.633L285.779 243.903L283.741 241.699L341.629 231.103C339.889 232.257 338.158 233.445 336.427 234.633ZM662.868 174.824L585.507 189.001C583.462 188.49 581.392 188.021 579.342 187.564L658.929 172.979C660.248 173.569 661.554 174.18 662.868 174.824ZM348.816 226.492L281.158 238.885L279.12 236.681L354.864 222.787C352.82 224.004 350.797 225.234 348.816 226.492ZM653.719 170.604L570.918 185.768C568.582 185.3 566.241 184.887 563.9 184.473L649.556 168.788C650.951 169.397 652.345 170.007 653.719 170.604ZM363.391 217.915L276.496 233.84L275.414 232.654C275.938 232.157 276.497 231.653 277.022 231.157L370.764 213.97C368.281 215.279 365.832 216.58 363.391 217.915ZM644.05 166.509L554.131 182.991C551.356 182.614 548.567 182.258 545.807 181.949L639.651 164.742C641.126 165.317 642.588 165.913 644.05 166.509ZM381.546 208.737L281.632 227.044C282.87 225.941 284.115 224.872 285.36 223.803L391.369 204.354C388.073 205.743 384.791 207.2 381.546 208.737ZM633.799 162.5L533.784 180.828C530.182 180.553 526.582 180.365 522.998 180.245L629.116 160.809C630.672 161.35 632.236 161.925 633.799 162.5ZM407.272 198.129L290.347 219.56C291.686 218.436 293.067 217.338 294.413 216.248L425.459 192.224C419.344 193.986 413.282 195.984 407.272 198.129ZM620.055 157.681L620.117 157.721C621.035 158.024 621.954 158.328 622.872 158.631L505.859 180.062C499.459 180.173 493.072 180.492 486.709 181.001L617.843 156.976L620.055 157.681ZM611.125 154.896L299.915 211.933C301.41 210.795 302.905 209.656 304.387 208.538L605.69 153.326C607.504 153.832 609.304 154.357 611.125 154.896ZM598.343 151.359L310.464 204.104C312.128 202.93 313.792 201.756 315.463 200.616L592.394 149.86C594.384 150.364 596.366 150.835 598.343 151.359ZM584.324 148.061L322.292 196.061C324.172 194.825 326.059 193.623 327.954 192.454L577.677 146.689C579.896 147.11 582.11 147.585 584.324 148.061ZM568.598 145.046L335.852 187.695C338.057 186.409 340.249 185.144 342.482 183.905L561.039 143.863C563.528 144.228 566.059 144.62 568.598 145.046ZM550.41 142.489L351.828 178.899C354.506 177.514 357.226 176.157 359.94 174.853L541.342 141.602C544.373 141.855 547.398 142.162 550.41 142.489ZM528.182 140.699L371.864 169.348C375.502 167.747 379.176 166.227 382.844 164.761L516.252 140.3C520.229 140.356 524.208 140.501 528.182 140.699ZM496.84 140.553L401.041 158.113C408.578 155.598 416.177 153.352 423.849 151.355L473.082 142.325C480.958 141.467 488.896 140.878 496.84 140.553ZM851.671 598.861L850.264 599.135L845.113 597.488L852.488 596.135C852.218 597.055 851.941 597.941 851.671 598.861Z" fill="url(#paint0_linear_0_1)"/>
</g>
<path fill-rule="evenodd" clip-rule="evenodd" d="M170.71 625.367C170.436 624.492 170.138 623.617 169.864 622.743L181.101 612.552L186.371 611.157L170.71 625.367ZM171.828 628.724L193.158 609.36L198.428 607.965L172.723 631.302C172.425 630.427 172.127 629.576 171.828 628.724ZM173.892 634.588L205.189 606.168L206.482 605.837C206.681 606.499 206.88 607.185 207.079 607.847L174.811 637.142C174.488 636.291 174.19 635.439 173.892 634.588ZM176.03 640.405L208.123 611.252C208.396 612.127 208.67 613.001 208.968 613.876L176.999 642.911C176.676 642.083 176.353 641.232 176.03 640.405ZM178.267 646.126L210.087 617.234C210.385 618.085 210.683 618.96 210.982 619.811L179.261 648.585C178.913 647.758 178.59 646.954 178.267 646.126ZM180.579 651.754L212.15 623.097C212.448 623.948 212.772 624.8 213.095 625.627L181.623 654.189C181.275 653.385 180.927 652.581 180.579 651.754ZM182.99 657.31L214.313 628.866C214.636 629.694 214.959 630.545 215.282 631.373L184.059 659.722C183.711 658.918 183.338 658.114 182.99 657.31ZM185.476 662.795L216.575 634.565C216.923 635.392 217.246 636.196 217.594 637.023L186.595 665.183C186.222 664.403 185.849 663.599 185.476 662.795ZM188.037 668.21L218.937 640.168C219.285 640.972 219.633 641.8 220.006 642.603L189.205 670.55C188.807 669.77 188.434 668.99 188.037 668.21ZM190.697 673.553L221.398 645.701C221.771 646.505 222.144 647.285 222.516 648.089L191.89 675.87C191.492 675.09 191.094 674.333 190.697 673.553ZM193.431 678.802L223.933 651.115C224.306 651.895 224.679 652.676 225.077 653.456L194.649 681.096C194.251 680.339 193.854 679.582 193.431 678.802ZM196.24 684.004L226.568 656.459C226.966 657.239 227.364 657.996 227.762 658.776L197.508 686.25C197.085 685.517 196.663 684.76 196.24 684.004ZM199.149 689.134L229.328 661.731C229.726 662.488 230.148 663.244 230.546 664.001L200.441 691.333C199.994 690.6 199.571 689.867 199.149 689.134ZM202.107 694.171L232.137 666.909C232.56 667.666 232.982 668.399 233.405 669.155L203.424 696.369C202.977 695.637 202.554 694.904 202.107 694.171ZM205.14 699.159L235.046 672.016C235.468 672.749 235.916 673.482 236.338 674.215L206.507 701.311C206.06 700.602 205.612 699.892 205.14 699.159ZM208.272 704.077L238.029 677.052C238.476 677.785 238.924 678.495 239.371 679.228L209.664 706.205C209.192 705.496 208.744 704.787 208.272 704.077ZM211.479 708.924L241.136 681.994C241.583 682.703 242.056 683.413 242.503 684.146L212.896 711.029C212.399 710.319 211.926 709.634 211.479 708.924ZM214.735 713.7L244.293 686.865C244.765 687.574 245.238 688.283 245.71 688.969L216.177 715.781C215.705 715.095 215.208 714.41 214.735 713.7ZM218.067 718.429L247.525 691.664C247.997 692.35 248.494 693.059 248.967 693.745L219.533 720.463C219.061 719.777 218.564 719.091 218.067 718.429ZM221.472 723.063L250.856 696.393C251.353 697.079 251.826 697.764 252.323 698.426L222.989 725.073C222.492 724.411 221.994 723.749 221.472 723.063ZM224.953 727.65L254.262 701.051C254.759 701.713 255.281 702.399 255.778 703.061L226.519 729.636C225.997 728.974 225.475 728.312 224.953 727.65ZM228.532 732.166L257.767 705.614C258.289 706.276 258.786 706.938 259.308 707.6L230.098 734.129C229.576 733.49 229.054 732.828 228.532 732.166ZM232.137 736.635L261.322 710.13C261.844 710.792 262.366 711.431 262.913 712.069L233.753 738.55C233.206 737.912 232.684 737.273 232.137 736.635ZM235.841 741.033L264.976 714.575C265.523 715.214 266.045 715.852 266.592 716.49L237.482 742.924C236.935 742.286 236.388 741.647 235.841 741.033ZM239.595 745.359L268.705 718.949C269.252 719.588 269.799 720.202 270.371 720.841L241.26 747.227C240.713 746.613 240.167 745.974 239.595 745.359ZM243.448 749.615L272.533 723.205C273.105 723.82 273.652 724.435 274.224 725.049L245.138 751.46C244.567 750.845 243.995 750.23 243.448 749.615ZM247.351 753.824L276.411 727.437C276.983 728.052 277.555 728.643 278.127 729.258L249.066 755.645C248.494 755.03 247.923 754.439 247.351 753.824ZM251.328 757.962L280.364 731.575C280.936 732.166 281.532 732.781 282.129 733.372L253.068 759.759C252.497 759.144 251.9 758.553 251.328 757.962ZM255.356 762.028L284.416 735.665C285.013 736.257 285.609 736.848 286.206 737.415L257.145 763.802C256.549 763.211 255.952 762.619 255.356 762.028ZM259.482 766.048L288.518 739.661C289.114 740.229 289.736 740.82 290.333 741.387L261.297 767.774C260.675 767.206 260.079 766.639 259.482 766.048ZM263.659 769.996L292.719 743.61C293.341 744.177 293.962 744.745 294.583 745.312L265.498 771.722C264.877 771.131 264.255 770.564 263.659 769.996ZM267.909 773.898L296.995 747.464C297.616 748.031 298.263 748.575 298.884 749.142L269.774 775.576C269.152 775.009 268.531 774.441 267.909 773.898ZM272.21 777.704L301.345 751.247C301.992 751.791 302.638 752.334 303.284 752.878L274.124 779.359C273.478 778.815 272.856 778.272 272.21 777.704ZM276.61 781.464L305.795 754.982C306.441 755.526 307.113 756.046 307.759 756.59L278.549 783.095C277.903 782.551 277.257 782.007 276.61 781.464ZM281.06 785.176L310.295 758.647C310.966 759.167 311.612 759.688 312.283 760.231L283.049 786.76C282.378 786.24 281.731 785.719 281.06 785.176ZM285.609 788.817L314.894 762.218C315.565 762.738 316.236 763.258 316.932 763.754L287.598 790.377C286.927 789.857 286.256 789.337 285.609 788.817ZM290.183 792.387L319.542 765.717C320.238 766.213 320.909 766.733 321.606 767.23L292.222 793.924C291.551 793.404 290.879 792.907 290.183 792.387ZM294.857 795.886L324.315 769.145C325.011 769.642 325.707 770.138 326.428 770.611L296.92 797.4C296.249 796.903 295.553 796.406 294.857 795.886ZM299.605 799.338L329.138 772.526C329.859 772.999 330.555 773.496 331.276 773.968L301.693 800.828C300.997 800.331 300.301 799.835 299.605 799.338ZM304.428 802.696L334.06 775.789C334.781 776.262 335.502 776.735 336.248 777.208L306.566 804.162C305.845 803.689 305.124 803.192 304.428 802.696ZM309.3 806.006L339.057 779.005C339.803 779.478 340.523 779.927 341.269 780.376L311.463 807.448C310.742 806.975 310.021 806.502 309.3 806.006ZM314.272 809.269L344.153 782.149C344.899 782.598 345.644 783.048 346.39 783.497L316.46 810.664C315.714 810.191 314.993 809.718 314.272 809.269ZM319.294 812.437L349.299 785.199C350.069 785.649 350.815 786.074 351.586 786.5L321.506 813.808C320.785 813.359 320.039 812.91 319.294 812.437ZM324.415 815.558L354.569 788.178C355.34 788.604 356.11 789.03 356.881 789.455L326.652 816.882C325.906 816.456 325.16 816.007 324.415 815.558ZM329.585 818.584L359.889 791.063C360.684 791.489 361.455 791.891 362.25 792.292L331.872 819.885C331.127 819.459 330.356 819.034 329.585 818.584ZM334.856 821.564L365.333 793.9C366.129 794.302 366.924 794.704 367.744 795.106L337.167 822.84C336.397 822.415 335.626 821.989 334.856 821.564ZM340.175 824.472L370.852 796.619C371.672 797.021 372.468 797.4 373.288 797.778L342.537 825.678C341.766 825.299 340.971 824.874 340.175 824.472ZM345.595 827.285L376.445 799.267C377.265 799.646 378.111 800.024 378.931 800.402L348.006 828.515C347.186 828.113 346.39 827.687 345.595 827.285ZM351.113 830.052L382.188 801.845C383.033 802.223 383.878 802.578 384.723 802.932L353.525 831.234C352.729 830.832 351.909 830.43 351.113 830.052ZM356.682 832.723L387.98 804.304C388.825 804.658 389.695 805.013 390.54 805.367L359.143 833.882C358.323 833.504 357.502 833.102 356.682 832.723ZM362.35 835.324L393.896 806.692C394.766 807.023 395.636 807.377 396.507 807.708L364.861 836.435C364.015 836.081 363.17 835.703 362.35 835.324ZM368.092 837.854L399.887 808.985C400.782 809.316 401.652 809.647 402.547 809.954L370.628 838.942C369.783 838.587 368.938 838.232 368.092 837.854ZM373.934 840.313L406.003 811.184C406.898 811.491 407.793 811.799 408.712 812.106L376.495 841.353C375.65 840.999 374.78 840.668 373.934 840.313ZM379.851 842.677L412.242 813.288C413.162 813.596 414.082 813.879 415.002 814.163L382.486 843.694C381.591 843.339 380.721 843.008 379.851 842.677ZM385.867 844.947L418.582 815.274C419.526 815.558 420.446 815.842 421.391 816.102L388.552 845.917C387.657 845.609 386.762 845.278 385.867 844.947ZM391.982 847.146L425.02 817.142C425.965 817.402 426.934 817.686 427.879 817.922L394.667 848.068C393.772 847.785 392.877 847.477 391.982 847.146ZM398.197 849.274L431.608 818.939C432.577 819.199 433.547 819.436 434.516 819.672L400.932 850.149C400.012 849.865 399.117 849.558 398.197 849.274ZM404.486 851.284L438.295 820.594C439.289 820.831 440.284 821.067 441.278 821.28L407.295 852.135C406.351 851.875 405.431 851.568 404.486 851.284ZM410.9 853.223L445.131 822.155C446.151 822.367 447.145 822.58 448.164 822.793L413.734 854.05C412.789 853.766 411.845 853.483 410.9 853.223ZM417.413 855.043L452.092 823.55C453.111 823.739 454.155 823.928 455.174 824.117L420.272 855.8C419.352 855.563 418.383 855.303 417.413 855.043ZM424.051 856.793L459.227 824.85C460.271 825.039 461.34 825.205 462.384 825.37L426.984 857.526C425.99 857.266 425.02 857.029 424.051 856.793ZM430.788 858.401L466.51 825.985C467.579 826.15 468.673 826.292 469.742 826.434L433.771 859.086C432.776 858.873 431.782 858.637 430.788 858.401ZM437.649 859.937L473.943 827.002C475.037 827.143 476.131 827.262 477.25 827.404L440.682 860.599C439.662 860.363 438.643 860.15 437.649 859.937ZM444.609 861.356L481.525 827.853C482.644 827.971 483.788 828.066 484.906 828.184L447.717 861.947C446.673 861.734 445.653 861.545 444.609 861.356ZM451.719 862.633L489.306 828.515C490.45 828.609 491.618 828.68 492.762 828.751L454.876 863.153C453.832 862.988 452.788 862.822 451.719 862.633ZM458.978 863.815L497.286 829.035C498.479 829.106 499.648 829.153 500.841 829.2L462.185 864.288C461.116 864.122 460.047 863.957 458.978 863.815ZM466.361 864.855L505.49 829.342C506.708 829.366 507.926 829.39 509.144 829.413L469.643 865.257C468.524 865.139 467.455 864.997 466.361 864.855ZM473.894 865.754L513.892 829.437C515.135 829.437 516.403 829.437 517.646 829.413L477.25 866.085C476.106 865.99 474.987 865.896 473.894 865.754ZM481.575 866.534L522.543 829.342C523.836 829.319 525.129 829.271 526.421 829.224L485.006 866.818C483.837 866.723 482.719 866.629 481.575 866.534ZM489.431 867.149L531.468 828.988C532.81 828.917 534.128 828.846 535.47 828.751L492.911 867.362C491.742 867.291 490.599 867.22 489.431 867.149ZM497.46 867.598L540.69 828.373C542.058 828.255 543.45 828.137 544.817 828.018L501.04 867.764C499.822 867.716 498.653 867.669 497.46 867.598ZM505.664 867.882L550.212 827.451C551.629 827.285 553.07 827.12 554.512 826.954L509.318 867.953C508.1 867.953 506.882 867.929 505.664 867.882ZM514.091 868L560.13 826.198C561.622 825.985 563.114 825.772 564.605 825.536L517.845 868C516.577 868 515.334 868 514.091 868ZM818.021 603L818.22 603.047L817.946 603.307L818.021 603ZM522.717 867.905L570.472 824.566C572.038 824.306 573.579 823.999 575.145 823.715L526.57 867.811C525.278 867.834 524.01 867.882 522.717 867.905ZM816.33 609.124L821.973 603.993L824.907 604.726L814.963 613.758C815.435 612.197 815.883 610.661 816.33 609.124ZM531.592 867.598L581.286 822.486C582.926 822.155 584.567 821.776 586.183 821.422L535.52 867.409C534.227 867.48 532.909 867.551 531.592 867.598ZM813.024 619.858L828.66 605.672L831.594 606.405L811.358 624.752C811.93 623.121 812.477 621.489 813.024 619.858ZM540.715 867.054L592.696 819.885C594.312 819.483 595.928 819.081 597.544 818.655L597.742 818.608L597.867 818.584L544.792 866.771C543.425 866.865 542.083 866.96 540.715 867.054ZM809.022 631.231L835.348 607.327L838.281 608.06L807.008 636.456C807.704 634.73 808.375 632.98 809.022 631.231ZM550.112 866.274L604.778 816.669C606.642 816.125 608.482 815.582 610.321 815.014L554.338 865.848C552.921 865.99 551.529 866.132 550.112 866.274ZM804.149 643.407L842.06 609.006L844.993 609.738L801.663 649.058C802.508 647.19 803.329 645.299 804.149 643.407ZM559.832 865.186L617.729 812.626C619.743 811.964 621.757 811.255 623.745 810.545L564.182 864.619C562.741 864.832 561.299 865.021 559.832 865.186ZM798.083 656.648L848.722 610.684L851.655 611.417L794.976 662.89C796.045 660.809 797.089 658.728 798.083 656.648ZM569.9 863.815L631.874 807.566C634.112 806.715 636.324 805.817 638.537 804.918L574.424 863.106C572.908 863.342 571.392 863.579 569.9 863.815ZM790.402 671.402L855.434 612.363L857 612.765C856.826 613.451 856.627 614.16 856.453 614.846L786.3 678.542C787.692 676.154 789.06 673.79 790.402 671.402ZM580.341 862.065L647.635 800.97C650.196 799.811 652.756 798.629 655.267 797.423L585.039 861.191C583.473 861.498 581.907 861.782 580.341 862.065ZM780.011 688.543L854.787 620.662C854.34 622.222 853.868 623.759 853.395 625.296L774.069 697.339C776.108 694.454 778.097 691.522 780.011 688.543ZM591.229 859.937L666.081 791.985C669.288 790.306 672.445 788.557 675.552 786.76L596.127 858.85C594.511 859.228 592.87 859.583 591.229 859.937ZM763.977 710.863L851.481 631.42C850.959 633.051 850.387 634.683 849.841 636.291L751.771 725.333C755.997 720.652 760.049 715.805 763.977 710.863ZM605.523 856.627H605.449C604.504 856.864 603.56 857.1 602.615 857.337L690.194 777.846C695.564 774.37 700.809 770.729 705.93 766.946L607.786 856.036L605.523 856.627ZM614.622 854.192L847.529 642.745C846.882 644.471 846.236 646.197 845.59 647.9L620.091 852.608C618.276 853.152 616.462 853.672 614.622 854.192ZM627.4 850.338L842.855 654.756C842.084 656.601 841.314 658.445 840.518 660.265L633.266 848.423C631.303 849.061 629.363 849.723 627.4 850.338ZM641.097 845.633L837.212 667.619C836.292 669.628 835.348 671.614 834.378 673.577L647.486 843.245C645.373 844.072 643.235 844.853 641.097 845.633ZM656.087 839.793L830.276 681.663C829.108 683.886 827.94 686.084 826.721 688.283L663.147 836.766C660.835 837.783 658.474 838.8 656.087 839.793ZM672.917 832.274L821.526 697.339C820.009 699.892 818.443 702.446 816.852 704.952L681.096 828.207C678.386 829.602 675.651 830.95 672.917 832.274ZM692.755 821.989L809.742 715.781C807.53 719.02 805.243 722.212 802.931 725.357L703.096 816.007C699.69 818.064 696.235 820.05 692.755 821.989ZM719.429 805.533L791.123 740.442C786.101 746.494 780.881 752.358 775.462 758.056L738.62 791.512C732.405 796.383 725.992 801.064 719.429 805.533ZM168 616.69L169.044 615.72L174.314 614.349L168.795 619.362C168.522 618.463 168.273 617.588 168 616.69Z" fill="url(#paint1_linear_0_1)"/>
<defs>
<linearGradient id="paint0_linear_0_1" x1="380.903" y1="116.789" x2="878.1" y2="569.786" gradientUnits="userSpaceOnUse">
<stop stop-color="#53B7EC"/>
<stop offset="1" stop-color="#001A24"/>
</linearGradient>
<linearGradient id="paint1_linear_0_1" x1="830.783" y1="763.739" x2="162.689" y2="647.473" gradientUnits="userSpaceOnUse">
<stop stop-color="#0B73B8"/>
<stop offset="1" stop-color="#2E388D"/>
</linearGradient>
<clipPath id="clip0_0_1">
<rect width="682.762" height="271.231" fill="white" transform="translate(844.086 610.642) rotate(-147.227)"/>
</clipPath>
</defs>
</svg>
