<svg width="780" height="1474" viewBox="0 0 780 1474" fill="none" xmlns="http://www.w3.org/2000/svg">
<mask id="mask0_98_3199" style="mask-type:alpha" maskUnits="userSpaceOnUse" x="142" y="134" width="1122" height="1206">
<ellipse rx="606.21" ry="556.281" transform="matrix(-0.277805 0.960638 0.960638 0.277805 703.09 736.886)" fill="#EEF2FF"/>
</mask>
<g mask="url(#mask0_98_3199)">
<path d="M503.306 113.862L497.765 115.59L497.792 115.631C443.478 132.987 391.669 157.008 343.432 187.02C295.113 217.084 250.794 252.812 211.57 293.572L166.311 250.032C209.496 205.185 257.633 166.224 309.599 133.918C361.647 101.561 417.989 75.5054 477.434 56.5041L477.584 56.4682L483.275 54.7044L503.306 113.862ZM-0.894816 276.46L275.149 472.143C278.984 466.603 282.9 461.188 286.91 455.832C343.404 380.74 419.648 320.753 509.785 283.748L534.509 341.3C454.531 374.136 386.895 427.28 336.85 493.886C333.28 498.671 329.764 503.539 326.344 508.464L366.96 537.264C405.347 482.014 455.9 437.466 513.905 406.181C550.095 386.653 589.195 372.356 629.945 363.85L542.792 -11.9291C529.423 -9.15036 515.641 -5.93475 501.76 -2.24441C487.469 1.5279 474.01 5.42348 461.383 9.44226C377.9 36.1255 300.082 76.08 230.616 127.374C161.233 178.616 100.258 241.104 50.4076 312.948L-0.894816 276.46ZM789.07 764.378L929.536 692.8L930.761 695.149L823.873 749.61C836.506 775.036 838.228 802.925 830.622 827.746C823.617 850.716 808.578 871.098 786.887 884.484L786.473 885.099L779.513 888.664C762.252 897.431 743.103 901.029 724.237 899.5C705.193 897.966 686.582 891.448 670.558 880.058L705.635 829.547C712.425 834.334 720.063 837.114 727.62 837.707C735.246 838.315 742.968 836.919 750.023 833.412L750.379 833.246C760.845 827.94 768.065 818.675 771.308 808.09C774.538 797.572 773.682 785.744 768.108 775.125L789.07 764.378ZM-40.1587 845.405L-89.3187 848.496C-88.7738 854.277 -88.1878 860.033 -87.5335 865.804C-80.7625 925.845 -67.4355 985.285 -47.7079 1042.98C25.9901 1258.52 178.9 1426.39 366.868 1523.8C441.863 1562.66 522.385 1590.25 605.755 1605.22L531.257 1652.21C464.731 1635.1 400.39 1610.43 339.457 1578.84C137.36 1474.15 -27.0194 1293.6 -106.291 1061.8C-127.556 999.648 -141.874 935.709 -149.159 871.281C-156.559 805.687 -156.502 739.632 -149.354 674.344L72.1105 703.978L76.0378 704.505L124.282 710.943L124.268 711.011L133.718 712.294C128.756 756.473 128.774 801.103 133.667 845.309C138.56 889.515 148.329 933.295 162.83 975.798C200.027 1084.55 266.169 1178.88 351.354 1250.42C436.512 1321.91 540.604 1370.63 653.685 1388.06L645.759 1449.54C520.98 1430.3 406.142 1376.58 312.233 1297.71C218.325 1218.83 145.36 1114.73 104.288 994.584C88.1957 947.548 77.4085 899.227 72.0437 850.431C66.7405 802.538 66.7208 754.493 71.928 706.567L-87.9559 685.207C-93.6515 738.388 -94.1398 792.466 -89.4499 845.87L21.4338 838.889C23.9683 867.679 28.2909 896.461 34.3617 925.083C40.4058 953.662 48.1864 981.794 57.6228 1009.35C114.574 1175.85 227.156 1310.97 368.531 1398.13C485.243 1470.1 621.643 1509.33 762.43 1506.46L670.243 1564.6C551.201 1552.29 437.353 1512.67 336.811 1450.7C183.287 1356.01 60.936 1209.15 -0.960411 1028.16C-11.2786 997.981 -19.7507 967.341 -26.2973 936.546C-32.741 906.628 -37.3246 876.185 -40.1587 845.405ZM1368.86 1123.96C1372.99 1115.64 1376.97 1107.18 1380.75 1098.68C1447.64 948.71 1461.76 774.073 1410.16 604.026L1435.78 596.82L1516.54 574.089C1513.7 564.749 1510.69 555.403 1507.55 546.135C1456.16 395.801 1364.41 265.621 1246.37 167.276C1128.38 68.9048 984.136 2.5195 827.661 -20.2841L835.069 -81.8482C1003.3 -57.3293 1158.42 14.0883 1285.29 119.76C1412.16 225.432 1510.78 365.468 1566.12 527.214C1611.07 658.583 1625 798.563 1606.69 934.849C1604.72 949.397 1602.42 963.865 1599.74 978.279L1525.36 1025.19C1534.09 992.239 1540.79 958.744 1545.31 924.916C1560.72 810.07 1551.73 691.299 1517.32 576.545L1470.06 589.861C1518.66 752.024 1512.46 917.775 1460.94 1065.82L1368.84 1123.92L1368.86 1123.96ZM1090.7 1299.41L1089.56 1297.83L1083.2 1288.94C1189.84 1213.91 1264.82 1107.89 1302.35 989.29C1339.88 870.618 1340.07 739.165 1297.04 613.363C1266.79 524.9 1217.16 445.421 1153.23 380.093C1089.21 314.64 1010.81 263.321 923.06 231.152L943.138 172.904C1039.89 208.349 1126.3 264.919 1196.85 337.09C1267.49 409.319 1322.27 496.972 1355.62 594.552C1403.09 733.338 1402.89 878.407 1361.45 1009.43C1342.06 1070.72 1313.63 1128.94 1276.87 1182.04L1090.73 1299.45L1090.7 1299.41ZM602.265 704.048C554.167 773.314 572.301 870.006 642.806 919.942C678.072 944.932 719.696 953.485 758.56 947.17C797.425 940.854 833.477 919.587 857.492 884.946L908.877 921.383C875.165 969.973 824.583 999.757 770.071 1008.64C715.559 1017.52 657.159 1005.47 607.729 970.454C509.753 900.976 483.728 766.917 549.432 669.762L508.748 640.946C456.871 717.366 449.53 816.638 489.53 902.189C520.927 969.372 576.33 1018.23 640.481 1042.79C704.292 1067.27 776.835 1067.68 843.03 1038.24L845.084 1037.3L940.596 1241.25C1017.3 1206.66 1081.84 1152.75 1129.36 1086.45C1201.36 985.962 1234.4 856.993 1211.3 723.332C1188.23 589.645 1113.45 476.622 1011.26 401.965C908.986 327.251 779.254 290.819 646.289 310.49L635.624 249.077C785.423 226.974 931.569 267.953 1046.77 352.124C1162.07 436.352 1246.36 563.758 1272.38 714.313C1298.35 864.895 1261.19 1010.18 1180.07 1123.36C1126.42 1198.2 1053.57 1259.05 967.155 1298.06L995.785 1359.16L993.563 1360.56L964.759 1299.1C921.076 1318.58 873.912 1332.49 824.038 1339.86L813.373 1278.45C857.604 1271.93 899.406 1259.58 938.186 1242.36L869.22 1095.1C787.675 1131.34 698.221 1130.81 619.492 1100.61C540.532 1070.32 472.271 1010.13 433.509 927.217C384.047 821.427 393.153 698.956 457.553 604.625L416.747 575.71C337.668 691.431 330.891 844.707 401.397 971.559C448.837 1056.89 528.397 1124.91 628.771 1155.48L612.097 1214.88C495.257 1179.32 402.675 1100.08 347.38 1000.68C265.057 852.721 273.261 673.927 365.484 539.373L324.868 510.573C206.131 683.7 214.107 918.014 347.897 1089.35C425.319 1188.51 539.597 1259.31 672.498 1278.49L685.28 1168.54L687.885 1168.9C681.272 1226.13 674.729 1283.21 668.158 1340.41C517.157 1319.46 387.278 1239.36 299.456 1126.85C148.478 933.436 139.695 669.242 273.7 474.294L-2.3435 278.61L-0.867823 276.501C52.6799 199.263 118.248 132.052 192.859 76.9824C267.389 21.9645 351.126 -21.0164 441.12 -49.8048C456.238 -54.6285 470.737 -58.8855 484.604 -62.5081C498.854 -66.2544 513.579 -69.7119 528.739 -72.8544L531.282 -73.3981L632.529 363.281C701.314 349.342 774.865 351.951 847.633 374.076L830.959 433.474C768.61 414.495 705.594 412.251 646.638 424.112L657.821 472.419C745.126 454.986 832.341 474.477 903.067 520.269C974.323 566.434 1028.7 639.379 1049.31 728.15C1062.63 785.596 1060.24 843.995 1043.82 897.871C1027.45 951.544 997.022 1000.65 954.262 1039.7L911.821 993.438C946.446 961.881 971.141 921.922 984.48 878.173C997.75 834.584 999.732 787.22 988.905 740.632C972.229 668.64 928.053 609.459 870.233 572.016C812.508 534.631 741.004 518.953 669.455 533.81L666.358 520.392L644.136 424.63C609.1 431.946 575.529 444.228 544.45 461.004C494.694 487.852 451.244 526.094 418.332 573.591C479.67 617.118 540.886 660.546 602.265 704.048Z" fill="#F4F4F4" fill-opacity="0.51"/>
</g>
</svg>
