<svg width="484" height="412" viewBox="0 0 484 412" fill="none" xmlns="http://www.w3.org/2000/svg">
<mask id="mask0_72_1797" style="mask-type:alpha" maskUnits="userSpaceOnUse" x="-124" y="0" width="608" height="412">
<rect x="-124" width="608" height="412" fill="#212E5A"/>
</mask>
<g mask="url(#mask0_72_1797)">
<mask id="mask1_72_1797" style="mask-type:alpha" maskUnits="userSpaceOnUse" x="-334" y="-200" width="874" height="819">
<ellipse rx="394.382" ry="449.36" transform="matrix(-0.5 -0.866025 -0.866025 0.5 103.009 209.837)" fill="#EEF2FF"/>
</mask>
<g mask="url(#mask1_72_1797)">
<path d="M12.5415 -410.391L7.79767 -409.022L7.81828 -408.985C-38.7066 -395.195 -83.4564 -375.509 -125.499 -350.487C-167.613 -325.422 -206.645 -295.299 -241.642 -260.641L-277.537 -299.906C-239.007 -338.039 -196.604 -370.893 -151.313 -397.825C-105.95 -424.801 -57.2885 -446.151 -6.36859 -461.249L-6.24037 -461.276L-1.36823 -462.673L12.5415 -410.391ZM-419.426 -281.083L-197.037 -102.743C-193.538 -107.493 -189.977 -112.13 -186.34 -116.714C-135.121 -180.971 -68.046 -231.501 9.57027 -261.563L27.5056 -210.565C-41.3635 -183.89 -100.863 -139.126 -146.238 -82.1288C-149.477 -78.0342 -152.674 -73.865 -155.794 -69.6428L-123.073 -43.3959C-88.0608 -90.7549 -43.3505 -128.436 6.96785 -154.32C38.3623 -170.478 71.9443 -181.982 106.627 -188.376L51.9731 -519.45C40.5951 -517.363 28.8486 -514.904 16.9952 -512.032C4.79304 -509.098 -6.71593 -506.036 -17.5318 -502.844C-89.0422 -481.643 -156.448 -448.683 -217.394 -405.585C-278.267 -362.53 -332.629 -309.418 -378.101 -247.833L-419.426 -281.083ZM220.565 166.206L342.21 107.185L343.123 109.272L250.558 154.179C259.919 176.753 259.985 201.202 252.361 222.727C245.333 242.647 231.678 260.095 212.779 271.25L212.4 271.778L206.372 274.718C191.424 281.946 175.147 284.601 159.361 282.778C143.426 280.946 128.101 274.763 115.194 264.384L147.188 221.086C152.659 225.45 158.943 228.079 165.267 228.792C171.648 229.521 178.21 228.498 184.315 225.61L184.623 225.475C193.685 221.101 200.214 213.179 203.466 203.999C206.702 194.879 206.569 184.507 202.409 175.071L220.565 166.206ZM-480.629 215.77L-522.114 217.211C-521.943 222.284 -521.735 227.335 -521.471 232.402C-518.753 285.116 -510.494 337.473 -496.767 388.472C-445.485 578.975 -325.243 729.807 -172.034 819.88C-110.908 855.815 -44.5761 882.038 24.7769 897.28L-40.1864 936.481C-95.2704 919.797 -148.143 896.552 -197.808 867.339C-362.535 770.528 -491.792 608.312 -546.953 403.425C-561.752 348.494 -570.622 292.175 -573.555 235.609C-576.526 178.02 -573.205 120.218 -563.96 63.2717L-379.23 94.9024L-375.955 95.4643L-335.712 102.339L-335.727 102.398L-327.846 103.765C-334.206 142.296 -336.403 181.351 -334.48 220.16C-332.556 258.968 -326.512 297.53 -316.427 335.097C-290.542 431.222 -239.607 515.466 -171.531 580.258C-103.477 645.014 -18.3754 690.323 75.835 708.484L66.1246 762.078C-37.8313 742.033 -131.72 692.071 -206.766 620.634C-281.812 549.197 -337.999 456.226 -366.577 350.029C-377.776 308.455 -384.451 265.894 -386.544 223.056C-388.629 181.01 -386.265 138.967 -379.512 97.163L-512.877 74.3572C-520.301 120.748 -523.391 168.057 -522.094 214.909L-428.522 211.654C-427.818 236.912 -425.61 262.21 -421.924 287.412C-418.259 312.576 -413.111 337.393 -406.543 361.752C-366.911 508.913 -278.952 630.048 -164.409 709.955C-69.8488 775.938 42.8862 813.78 161.396 814.889L81.0081 863.398C-18.4673 849.559 -112.223 811.96 -193.684 755.146C-318.067 668.335 -413.658 536.674 -456.729 376.705C-463.909 350.028 -469.514 322.998 -473.492 295.882C-477.427 269.536 -479.772 242.779 -480.629 215.77ZM690.213 495.782C694.096 488.61 697.86 481.312 701.455 473.966C765.127 344.456 785.656 192.001 750.697 41.8703L772.593 36.2237L841.622 18.4109C839.698 10.1648 837.624 1.90888 835.444 -6.28201C799.686 -139.156 728.999 -255.433 634.633 -344.529C540.303 -433.646 422.319 -495.45 291.892 -519.431L301.171 -573.113C441.395 -547.328 568.279 -480.841 669.708 -385.107C771.137 -289.372 847.117 -164.293 885.625 -21.3319C916.906 94.7813 921.682 217.631 899.534 336.42C897.163 349.099 894.51 361.7 891.539 374.244L826.684 413.381C835.655 384.772 842.948 355.633 848.422 326.148C867.07 226.047 865.395 121.883 842.151 20.5806L801.761 31.0163C834.588 174.171 821.163 319.053 770.509 447.279L690.193 495.744L690.213 495.782ZM447.65 642.153L446.774 640.74L441.864 632.803C535.241 569.885 603.535 479.048 640.96 376.227C678.401 273.348 685.074 158.322 655.124 47.1299C634.077 -31.0591 596.293 -101.885 545.774 -160.697C495.194 -219.62 431.823 -266.545 359.641 -296.953L379.408 -347.407C458.993 -313.901 528.843 -262.175 584.58 -197.205C640.395 -132.182 682.109 -54.0699 705.31 32.1764C738.348 154.845 730.985 281.784 689.656 395.373C670.316 448.506 643.528 498.717 609.99 544.241L447.671 642.19L447.65 642.153ZM66.4974 108.606C22.6262 167.981 33.0815 253.059 89.8846 298.571C118.297 321.346 152.868 329.901 185.856 325.375C218.845 320.849 250.21 303.167 272.117 273.472L313.514 306.678C282.763 348.33 238.759 373.092 192.488 379.461C146.217 385.83 97.7132 373.785 57.8903 341.869C-21.0408 278.55 -36.2788 160.571 23.7762 77.244L-9.00151 50.9814C-56.4037 116.519 -67.4946 203.2 -38.1039 279.091C-15.0356 338.688 29.1237 382.871 81.8425 406.01C134.279 429.071 195.25 431.302 252.362 407.242L254.136 406.47L324.332 587.402C390.533 559.101 447.47 513.594 490.706 456.792C556.225 370.716 590.394 258.71 577.589 141.153C564.821 23.5748 507.547 -77.2519 425.335 -145.211C343.046 -213.223 235.778 -248.441 123.012 -234.649L117.089 -288.664C244.128 -304.151 364.971 -264.531 457.659 -187.911C550.424 -111.239 614.976 2.41788 629.388 134.833C643.764 267.271 605.324 393.451 531.513 490.404C482.696 554.506 418.43 605.879 343.846 637.795L364.89 691.994L362.953 693.163L341.78 638.643C304.088 654.569 263.746 665.524 221.449 670.689L215.525 616.674C253.035 612.107 288.793 602.376 322.251 588.309L271.564 457.674C201.208 487.287 126.026 484.523 61.3304 456.067C-3.55481 427.528 -57.9628 373.104 -86.4444 299.551C-122.788 205.705 -109.063 98.769 -50.2439 17.8807L-83.1194 -8.47222C-155.339 90.7563 -168.632 224.709 -115.639 337.526C-79.9824 413.419 -16.4625 474.987 66.4131 504.318L49.4509 555.867C-47.0213 521.749 -120.933 450.027 -162.498 361.621C-224.38 230.027 -208.623 73.7815 -124.418 -41.5886L-157.139 -67.8355C-265.547 80.6063 -270.452 285.851 -166.457 439.22C-106.277 527.99 -13.7061 592.883 97.0812 613.087L113.276 517.203L115.448 517.585C107.053 567.498 98.7236 617.272 90.364 667.164C-35.5527 644.941 -140.781 571.508 -209.042 470.791C-326.394 297.658 -320.687 66.2451 -198.361 -100.899L-420.75 -279.238L-419.405 -281.045C-370.557 -347.256 -312.1 -404.382 -246.641 -450.652C-181.254 -496.878 -108.722 -532.335 -31.6317 -555.21C-18.6825 -559.042 -6.28118 -562.395 5.55695 -565.208C17.7232 -568.119 30.2751 -570.766 43.1766 -573.126L45.3414 -573.536L108.828 -188.808C167.35 -199.235 229.059 -195.06 289.143 -173.827L272.181 -122.278C220.701 -140.49 167.831 -144.076 117.675 -135.214L124.684 -92.6545C198.95 -105.663 271.31 -86.3627 328.505 -44.4714C386.126 -2.24019 428.234 62.9909 441.161 141.201C449.508 191.813 444.606 242.854 428.134 289.577C411.709 336.123 383.695 378.313 345.809 411.379L312.418 369.807C343.094 343.083 365.836 308.753 379.219 270.812C392.536 233.011 396.549 191.616 389.754 150.57C379.302 87.1424 345.093 34.218 298.335 -0.0346146C251.655 -34.2343 192.314 -49.7935 131.423 -38.6339L129.485 -50.4553L115.546 -134.825C85.7267 -129.324 56.8931 -119.441 29.9323 -105.561C-13.2306 -83.3478 -51.6569 -51.0013 -81.6817 -10.2855C-32.268 29.3824 17.0479 68.9599 66.4974 108.606Z" fill="#243368"/>
</g>
</g>
</svg>
