<svg width="1920" height="781" viewBox="0 0 1920 781" fill="none" xmlns="http://www.w3.org/2000/svg">
<mask id="mask0_82_3185" style="mask-type:alpha" maskUnits="userSpaceOnUse" x="-2" y="0" width="1973" height="781">
<rect x="-2" width="1973" height="781" fill="#212E5A"/>
</mask>
<g mask="url(#mask0_82_3185)">
<mask id="mask1_82_3185" style="mask-type:alpha" maskUnits="userSpaceOnUse" x="1455" y="-38" width="1060" height="992">
<ellipse cx="1985.01" cy="457.991" rx="478.341" ry="545.022" transform="rotate(-60 1985.01 457.991)" fill="#EEF2FF"/>
</mask>
<g mask="url(#mask1_82_3185)">
<path d="M2094.74 -294.275L2100.5 -292.614L2100.47 -292.568C2156.9 -275.843 2211.18 -251.966 2262.17 -221.618C2313.25 -191.217 2360.59 -154.68 2403.04 -112.645L2446.57 -160.268C2399.84 -206.519 2348.41 -246.368 2293.48 -279.033C2238.46 -311.752 2179.44 -337.647 2117.68 -355.959L2117.52 -355.992L2111.61 -357.687L2094.74 -294.275ZM2618.67 -137.438L2348.94 78.8671C2344.69 73.1068 2340.37 67.4823 2335.96 61.9221C2273.84 -16.0135 2192.49 -77.3008 2098.35 -113.763L2076.59 -51.9085C2160.12 -19.5543 2232.29 34.739 2287.32 103.87C2291.25 108.837 2295.13 113.893 2298.91 119.015L2259.23 150.849C2216.76 93.4079 2162.53 47.7047 2101.5 16.3102C2063.42 -3.28659 2022.69 -17.2399 1980.63 -24.9958L2046.92 -426.551C2060.72 -424.019 2074.96 -421.036 2089.34 -417.552C2104.14 -413.995 2118.1 -410.28 2131.22 -406.409C2217.95 -380.694 2299.71 -340.717 2373.63 -288.444C2447.46 -236.224 2513.39 -171.805 2568.55 -97.1096L2618.67 -137.438ZM1842.43 405.072L1694.89 333.487L1693.78 336.018L1806.06 390.485C1794.7 417.864 1794.62 447.519 1803.87 473.625C1812.39 497.786 1828.95 518.948 1851.88 532.479L1852.34 533.118L1859.65 536.685C1877.78 545.452 1897.52 548.672 1916.67 546.461C1935.99 544.238 1954.58 536.739 1970.24 524.151L1931.43 471.635C1924.8 476.928 1917.17 480.117 1909.5 480.982C1901.76 481.866 1893.81 480.625 1886.4 477.123L1886.03 476.958C1875.04 471.653 1867.12 462.045 1863.17 450.911C1859.25 439.849 1859.41 427.269 1864.46 415.824L1842.43 405.072ZM2692.9 465.188L2743.22 466.935C2743.01 473.088 2742.76 479.214 2742.44 485.36C2739.14 549.297 2729.12 612.799 2712.48 674.655C2650.28 905.714 2504.44 1088.66 2318.61 1197.9C2244.47 1241.49 2164.02 1273.29 2079.9 1291.78L2158.7 1339.33C2225.51 1319.09 2289.63 1290.9 2349.87 1255.47C2549.67 1138.05 2706.44 941.296 2773.35 692.792C2791.3 626.167 2802.05 557.859 2805.61 489.25C2809.21 419.401 2805.19 349.294 2793.97 280.225L2569.92 318.589L2565.94 319.27L2517.13 327.609L2517.15 327.681L2507.59 329.338C2515.31 376.072 2517.97 423.442 2515.64 470.512C2513.31 517.582 2505.98 564.354 2493.74 609.918C2462.35 726.507 2400.57 828.685 2318 907.27C2235.46 985.811 2132.24 1040.77 2017.97 1062.79L2029.75 1127.8C2155.84 1103.48 2269.72 1042.89 2360.74 956.241C2451.76 869.596 2519.91 756.833 2554.57 628.028C2568.15 577.604 2576.25 525.982 2578.79 474.025C2581.32 423.028 2578.45 372.035 2570.26 321.331L2732.02 293.67C2741.02 349.936 2744.77 407.317 2743.19 464.143L2629.7 460.195C2628.85 490.831 2626.17 521.514 2621.7 552.08C2617.25 582.602 2611.01 612.703 2603.04 642.247C2554.98 820.737 2448.29 967.66 2309.36 1064.58C2194.67 1144.61 2057.94 1190.51 1914.2 1191.85L2011.7 1250.69C2132.35 1233.9 2246.07 1188.3 2344.87 1119.39C2495.73 1014.1 2611.67 854.407 2663.91 660.384C2672.62 628.027 2679.42 595.242 2684.25 562.354C2689.02 530.4 2691.86 497.946 2692.9 465.188ZM1272.8 804.81C1268.09 796.112 1263.53 787.259 1259.17 778.35C1181.94 621.269 1157.04 436.358 1199.44 254.267L1172.89 247.418L1089.16 225.814C1091.5 215.812 1094.01 205.799 1096.66 195.864C1140.03 34.7025 1225.76 -106.328 1340.22 -214.391C1454.63 -322.48 1597.73 -397.44 1755.92 -426.527L1744.67 -491.637C1574.59 -460.363 1420.7 -379.722 1297.67 -263.607C1174.65 -147.492 1082.5 4.21404 1035.79 177.61C997.852 318.442 992.06 467.445 1018.92 611.522C1021.8 626.9 1025.02 642.184 1028.62 657.399L1107.28 704.867C1096.4 670.167 1087.55 634.825 1080.91 599.063C1058.3 477.652 1060.33 351.313 1088.52 228.445L1137.51 241.103C1097.69 414.732 1113.98 590.459 1175.41 745.981L1272.83 804.764L1272.8 804.81ZM1567.01 982.341L1568.07 980.628L1574.02 971C1460.77 894.688 1377.93 784.514 1332.54 659.804C1287.13 535.023 1279.04 395.51 1315.36 260.646C1340.89 165.812 1386.72 79.9082 1447.99 8.57634C1509.34 -62.8913 1586.2 -119.806 1673.75 -156.687L1649.78 -217.882C1553.25 -177.242 1468.53 -114.505 1400.92 -35.7035C1333.23 43.162 1282.63 137.903 1254.49 242.51C1214.42 391.293 1223.35 545.255 1273.48 683.026C1296.94 747.47 1329.43 808.37 1370.11 863.586L1566.98 982.386L1567.01 982.341ZM2029.3 335.21C2082.51 407.225 2069.83 510.414 2000.93 565.616C1966.47 593.239 1924.54 603.616 1884.53 598.126C1844.52 592.636 1806.48 571.19 1779.91 535.173L1729.7 575.449C1767 625.968 1820.37 656.001 1876.49 663.726C1932.61 671.451 1991.44 656.842 2039.74 618.131C2135.47 541.333 2153.96 398.237 2081.12 297.171L2120.87 265.318C2178.37 344.807 2191.82 449.941 2156.17 541.989C2128.19 614.274 2074.63 667.862 2010.69 695.927C1947.09 723.897 1873.14 726.604 1803.87 697.421L1801.72 696.485L1716.58 915.934C1636.28 881.608 1567.22 826.414 1514.78 757.52C1435.32 653.119 1393.87 517.269 1409.4 374.686C1424.89 232.077 1494.36 109.786 1594.07 27.3592C1693.88 -55.1314 1823.98 -97.8478 1960.75 -81.1193L1967.94 -146.634C1813.85 -165.417 1667.29 -117.363 1554.87 -24.4319C1442.35 68.5633 1364.06 206.416 1346.58 367.021C1329.14 527.652 1375.76 680.694 1465.29 798.288C1524.5 876.035 1602.45 938.345 1692.91 977.055L1667.38 1042.79L1669.73 1044.21L1695.41 978.084C1741.13 997.401 1790.06 1010.69 1841.36 1016.95L1848.55 951.438C1803.05 945.899 1759.68 934.097 1719.1 917.035L1780.58 758.59C1865.91 794.507 1957.1 791.154 2035.57 756.641C2114.27 722.025 2180.26 656.015 2214.8 566.804C2258.88 452.98 2242.23 323.279 2170.89 225.17L2210.77 193.207C2298.36 313.56 2314.49 476.029 2250.21 612.864C2206.96 704.913 2129.92 779.588 2029.4 815.164L2049.98 877.686C2166.99 836.306 2256.63 749.314 2307.05 642.088C2382.1 482.479 2362.99 292.972 2260.86 153.041L2300.55 121.207C2432.03 301.249 2437.98 550.188 2311.85 736.207C2238.86 843.875 2126.58 922.583 1992.21 947.087L1972.56 830.792L1969.93 831.255C1980.11 891.794 1990.21 952.164 2000.35 1012.68C2153.08 985.722 2280.7 896.657 2363.5 774.499C2505.83 564.508 2498.91 283.831 2350.54 81.1044L2620.28 -135.201L2618.64 -137.393C2559.4 -217.699 2488.5 -286.986 2409.1 -343.106C2329.79 -399.173 2241.82 -442.178 2148.32 -469.923C2132.61 -474.571 2117.57 -478.637 2103.21 -482.049C2088.46 -485.58 2073.23 -488.79 2057.59 -491.652L2054.96 -492.15L1977.96 -25.5197C1906.98 -38.1663 1832.13 -33.1024 1759.26 -7.34876L1779.83 55.174C1842.27 33.0845 1906.39 28.7355 1967.23 39.4844L1958.73 91.104C1868.65 75.3259 1780.89 98.7351 1711.52 149.545C1641.63 200.766 1590.56 279.884 1574.88 374.744C1564.75 436.13 1570.7 498.037 1590.68 554.707C1610.6 611.162 1644.58 662.334 1690.53 702.439L1731.03 652.017C1693.82 619.604 1666.24 577.965 1650 531.947C1633.85 486.099 1628.99 435.891 1637.23 386.107C1649.9 309.177 1691.4 244.986 1748.11 203.441C1804.72 161.961 1876.7 143.089 1950.55 156.625L1952.9 142.287L1969.81 39.9558C2005.98 46.6276 2040.95 58.6149 2073.65 75.4496C2126 102.392 2172.61 141.624 2209.02 191.008C2149.09 239.121 2089.28 287.124 2029.3 335.21Z" fill="#243368"/>
</g>
<mask id="mask2_82_3185" style="mask-type:alpha" maskUnits="userSpaceOnUse" x="-286" y="-270" width="1184" height="1109">
<ellipse rx="534.492" ry="609" transform="matrix(-0.5 -0.866025 -0.866025 0.5 305.657 284.384)" fill="#EEF2FF"/>
</mask>
<g mask="url(#mask2_82_3185)">
<path d="M183.048 -556.188L176.619 -554.332L176.647 -554.282C113.593 -535.594 52.9457 -508.913 -4.03264 -475.002C-61.1082 -441.033 -114.007 -400.207 -161.438 -353.237L-210.085 -406.451C-157.866 -458.132 -100.4 -502.658 -39.018 -539.158C22.4608 -575.717 88.4101 -604.652 157.42 -625.114L157.594 -625.151L164.197 -627.044L183.048 -556.188ZM-402.381 -380.941L-100.985 -139.244C-96.2437 -145.681 -91.4183 -151.966 -86.4884 -158.179C-17.0737 -245.263 73.8309 -313.745 179.021 -354.487L203.328 -285.372C109.993 -249.219 29.3558 -188.553 -32.1402 -111.306C-36.5292 -105.757 -40.8624 -100.107 -45.091 -94.3843L-0.745046 -58.8129C46.7056 -122.997 107.3 -174.065 175.494 -209.145C218.042 -231.042 263.555 -246.633 310.559 -255.3L236.488 -703.992C221.068 -701.163 205.148 -697.83 189.084 -693.937C172.547 -689.962 156.949 -685.812 142.291 -681.486C45.3754 -652.753 -45.9778 -608.083 -128.575 -549.674C-211.074 -491.323 -284.749 -419.343 -346.375 -335.879L-402.381 -380.941ZM464.974 225.252L629.836 145.265L631.074 148.093L505.623 208.953C518.31 239.547 518.399 272.682 508.066 301.853C498.542 328.85 480.036 352.497 454.422 367.616L453.909 368.33L445.739 372.315C425.482 382.111 403.421 385.71 382.027 383.239C360.431 380.755 339.662 372.376 322.169 358.31L365.529 299.63C372.945 305.544 381.46 309.107 390.032 310.074C398.68 311.061 407.572 309.675 415.846 305.761L416.263 305.577C428.546 299.65 437.394 288.914 441.801 276.473C446.187 264.112 446.006 250.055 440.368 237.267L464.974 225.252ZM-485.328 292.426L-541.551 294.378C-541.319 301.253 -541.037 308.099 -540.679 314.966C-536.996 386.408 -525.803 457.365 -507.199 526.481C-437.699 784.664 -274.739 989.081 -67.1007 1111.15C15.7415 1159.85 105.639 1195.39 199.63 1216.05L111.588 1269.18C36.9346 1246.57 -34.7223 1215.06 -102.031 1175.47C-325.279 1044.27 -500.456 824.423 -575.215 546.747C-595.271 472.301 -607.292 395.975 -611.266 319.312C-615.293 241.264 -610.793 162.928 -598.263 85.7498L-347.906 128.618L-343.467 129.379L-288.927 138.697L-288.947 138.777L-278.266 140.628C-286.886 192.849 -289.864 245.779 -287.257 298.375C-284.65 350.97 -276.459 403.232 -262.79 454.145C-227.71 584.42 -158.679 698.592 -66.4191 786.403C25.8127 874.163 141.148 935.57 268.827 960.182L255.667 1032.82C114.78 1005.65 -12.4648 937.938 -114.171 841.122C-215.878 744.306 -292.026 618.306 -330.757 474.381C-345.935 418.038 -354.981 360.356 -357.817 302.3C-360.644 245.317 -357.44 188.337 -348.288 131.681L-529.033 100.774C-539.094 163.645 -543.282 227.761 -541.524 291.258L-414.709 286.846C-413.755 321.079 -410.763 355.363 -405.767 389.518C-400.8 423.623 -393.823 457.257 -384.922 490.269C-331.21 689.711 -212.003 853.881 -56.7663 962.176C71.3875 1051.6 224.173 1102.89 384.785 1104.39L275.838 1170.13C141.023 1151.38 13.9593 1100.42 -96.4412 1023.42C-265.014 905.77 -394.564 727.334 -452.937 510.535C-462.667 474.38 -470.263 437.747 -475.655 400.997C-480.988 365.292 -484.166 329.029 -485.328 292.426ZM1101.47 671.914C1106.73 662.196 1111.84 652.304 1116.71 642.348C1203 466.829 1230.82 260.212 1183.44 56.7453L1213.12 49.0927L1306.67 24.9516C1304.06 13.776 1301.25 2.58704 1298.3 -8.51383C1249.84 -188.594 1154.04 -346.179 1026.15 -466.927C898.303 -587.705 738.405 -671.465 561.642 -703.965L574.217 -776.719C764.258 -741.773 936.219 -651.666 1073.68 -521.921C1211.14 -392.175 1314.12 -222.661 1366.31 -28.9103C1408.7 128.454 1415.17 294.948 1385.16 455.937C1381.94 473.121 1378.35 490.199 1374.32 507.2L1286.43 560.239C1298.58 521.467 1308.47 481.976 1315.89 442.016C1341.16 306.353 1338.89 165.183 1307.39 27.892L1252.65 42.0353C1297.14 236.047 1278.94 432.401 1210.29 606.18L1101.44 671.864L1101.47 671.914ZM772.735 870.286L771.548 868.371L764.893 857.614C891.444 772.344 984 649.236 1034.72 509.887C1085.46 370.458 1094.51 214.568 1053.92 63.8734C1025.39 -42.0932 974.185 -138.081 905.719 -217.787C837.169 -297.644 751.285 -361.239 653.459 -402.45L680.248 -470.828C788.108 -425.418 882.772 -355.316 958.311 -267.264C1033.96 -179.141 1090.49 -73.279 1121.93 43.6074C1166.71 209.856 1156.73 381.892 1100.72 535.835C1074.51 607.844 1038.2 675.893 992.747 737.59L772.763 870.336L772.735 870.286ZM256.173 147.19C196.716 227.658 210.885 342.961 287.868 404.642C326.374 435.508 373.227 447.103 417.935 440.969C462.644 434.835 505.151 410.871 534.842 370.626L590.945 415.63C549.269 472.079 489.633 505.637 426.923 514.269C364.213 522.901 298.478 506.578 244.508 463.322C137.535 377.509 116.884 217.615 198.274 104.686L153.852 69.0932C89.6092 157.913 74.5782 275.389 114.41 378.242C145.674 459.012 205.521 518.891 276.969 550.25C348.034 581.504 430.666 584.528 508.068 551.919L510.472 550.873L605.606 796.084C695.327 757.728 772.49 696.054 831.086 619.074C919.882 502.418 966.19 350.621 948.837 191.3C931.532 31.95 853.91 -104.697 742.492 -196.799C630.969 -288.973 485.592 -336.704 332.765 -318.011L324.737 -391.216C496.909 -412.205 660.683 -358.509 786.3 -254.67C912.02 -150.758 999.506 3.27683 1019.04 182.735C1038.52 362.222 986.425 533.229 886.391 664.627C820.231 751.501 733.134 821.126 632.054 864.38L660.573 937.834L657.947 939.418L629.253 865.53C578.17 887.113 523.496 901.96 466.172 908.96L458.145 835.755C508.981 829.566 557.441 816.379 602.785 797.314L534.092 620.269C438.742 660.402 336.849 656.656 249.17 618.091C161.233 579.412 87.4962 505.654 48.8962 405.97C-0.3584 278.784 18.2421 133.858 97.9574 24.233L53.4025 -11.4821C-44.4744 122.999 -62.4901 304.539 9.3292 457.437C57.6539 560.291 143.74 643.732 256.058 683.484L233.07 753.346C102.325 707.108 2.15447 609.904 -54.1763 490.092C-138.043 311.747 -116.687 99.9934 -2.56832 -56.3635L-46.9142 -91.935C-193.835 109.243 -200.482 387.404 -59.5421 595.259C22.0174 715.565 147.476 803.513 297.622 830.894L319.57 700.947L322.514 701.464C311.136 769.11 299.848 836.566 288.518 904.183C117.868 874.064 -24.7437 774.544 -117.256 638.046C-276.299 403.405 -268.564 89.7795 -102.78 -136.745L-404.176 -378.441L-402.353 -380.891C-336.152 -470.623 -256.927 -548.045 -168.213 -610.752C-79.5958 -673.401 18.7045 -721.453 123.182 -752.456C140.731 -757.65 157.538 -762.193 173.582 -766.005C190.071 -769.951 207.082 -773.538 224.567 -776.736L227.501 -777.292L313.541 -255.885C392.854 -270.016 476.487 -264.358 557.916 -235.581L534.928 -165.719C465.159 -190.401 393.506 -195.261 325.532 -183.25L335.03 -125.571C435.681 -143.201 533.748 -117.044 611.262 -60.2704C689.354 -3.03607 746.42 85.3692 763.94 191.365C775.253 259.956 768.609 329.131 746.286 392.453C724.025 455.535 686.058 512.714 634.713 557.526L589.46 501.186C631.033 464.968 661.856 418.441 679.993 367.022C698.04 315.791 703.479 259.689 694.271 204.061C680.105 118.101 633.742 46.3744 570.374 -0.0469329C507.11 -46.3964 426.688 -67.4833 344.164 -52.3591L341.537 -68.3803L322.647 -182.724C282.233 -175.269 243.156 -161.874 206.617 -143.063C148.12 -112.958 96.0423 -69.1202 55.3509 -13.9395C122.319 39.8209 189.155 93.4589 256.173 147.19Z" fill="#243368"/>
</g>
</g>
</svg>
