<svg width="319" height="42" viewBox="0 0 319 42" fill="none" xmlns="http://www.w3.org/2000/svg">
<g clip-path="url(#clip0_82_3240)">
<path d="M63.0991 0.067688H0V42.0001H63.0991V0.067688Z" fill="#253D92"/>
<path d="M32.0145 6.25613H33.851L32.3683 7.37207L32.9412 9.13052L31.4753 8.0484L30.0094 9.13052L30.5823 7.37207L29.0996 6.25613H30.9193L31.4753 4.5484L32.0145 6.25613Z" fill="#F9EC23"/>
<path d="M32.0984 34.645H33.935L32.4523 35.761L33.0251 37.5194L31.5593 36.4373L30.0934 37.5194L30.6663 35.761L29.1836 34.645H31.0033L31.5593 32.9204L32.0984 34.645Z" fill="#F9EC23"/>
<path d="M39.1063 32.768H40.9259L39.4601 33.8671L40.033 35.6255L38.5671 34.5434L37.0844 35.6255L37.6741 33.8671L36.1914 32.768H38.0111L38.5671 31.0434L39.1063 32.768Z" fill="#F9EC23"/>
<path d="M39.1063 8.13302H40.9259L39.4601 9.23206L40.033 11.0074L38.5671 9.90839L37.0844 11.0074L37.6741 9.23206L36.1914 8.13302H38.0111L38.5671 6.40839L39.1063 8.13302Z" fill="#F9EC23"/>
<path d="M44.2957 13.3405H46.1323L44.6496 14.4565L45.2224 16.2149L43.7566 15.1328L42.2907 16.2149L42.8636 14.4565L41.3809 13.3405H43.2005L43.7566 11.6328L44.2957 13.3405Z" fill="#F9EC23"/>
<path d="M44.2957 27.6112H46.1323L44.6496 28.7271L45.2224 30.4856L43.7566 29.4034L42.2907 30.4856L42.8636 28.7271L41.3809 27.6112H43.2005L43.7566 25.9034L44.2957 27.6112Z" fill="#F9EC23"/>
<path d="M46.2508 20.3744H48.0705L46.6046 21.4734L47.1775 23.2488L45.7116 22.1666L44.2458 23.2488L44.8186 21.4734L43.3359 20.3744H45.1556L45.7116 18.6497L46.2508 20.3744Z" fill="#F9EC23"/>
<path d="M24.8856 8.14975H26.7052L25.2394 9.24878L25.8122 11.0241L24.3464 9.92511L22.8637 11.0241L23.4534 9.24878L21.9707 8.14975H23.7904L24.3464 6.42511L24.8856 8.14975Z" fill="#F9EC23"/>
<path d="M19.8309 13.3576H21.6506L20.1847 14.4736L20.7576 16.232L19.2917 15.1499L17.809 16.232L18.3987 14.4736L16.916 13.3576H18.7357L19.2917 11.6499L19.8309 13.3576Z" fill="#F9EC23"/>
<path d="M17.9442 20.3913H19.7807L18.298 21.5073L18.8708 23.2657L17.405 22.1836L15.9391 23.2657L16.512 21.5073L15.0293 20.3913H16.849L17.405 18.6836L17.9442 20.3913Z" fill="#F9EC23"/>
<path d="M19.8309 27.628H21.6506L20.1847 28.7439L20.7576 30.5024L19.2917 29.4202L17.809 30.5024L18.3987 28.7439L16.916 27.628H18.7357L19.2917 25.9202L19.8309 27.628Z" fill="#F9EC23"/>
<path d="M24.952 32.7851H26.7716L25.3058 33.8841L25.8787 35.6425L24.4128 34.5604L22.9469 35.6425L23.5198 33.8841L22.0371 32.7851H23.8568L24.4128 31.0604L24.952 32.7851Z" fill="#F9EC23"/>
<path d="M316.002 41.7804V37.976L319.001 32.6499H316.693L315.783 34.848C315.514 35.4905 315.295 36.0316 315.092 36.5895H315.059C314.84 35.9977 314.638 35.5074 314.351 34.848L313.441 32.6499H311.082L313.964 38.0436V41.7804H316.002ZM309.785 36.2345H306.432V34.3407H309.987V32.6499H304.393V41.7804H310.189V40.0895H306.449V37.9253H309.802V36.2345H309.785ZM295.8 41.7804H297.839V38.8045L298.614 37.8407L300.855 41.7804H303.248L300.097 36.5388L303.113 32.6499H300.569L298.513 35.6765C298.294 35.9977 298.075 36.319 297.873 36.6741H297.839V32.633H295.8V41.7804ZM289.566 34.1886C289.718 34.1547 290.004 34.1209 290.493 34.1209C291.437 34.1209 292.009 34.5605 292.009 35.3721C292.009 36.1668 291.403 36.6741 290.375 36.6741H289.566V34.1886ZM287.528 41.7804H289.566V38.1789H290.173C291.015 38.1958 291.42 38.5002 291.672 39.6499C291.925 40.7828 292.161 41.5098 292.296 41.7804H294.402C294.234 41.4253 293.964 40.2248 293.678 39.1765C293.442 38.3311 293.105 37.7393 292.464 37.4857V37.4518C293.256 37.1644 294.065 36.3697 294.065 35.22C294.065 34.3915 293.762 33.732 293.223 33.3093C292.582 32.8021 291.639 32.5992 290.274 32.5992C289.162 32.5992 288.202 32.6837 287.528 32.7852V41.7804ZM278.059 32.6499V37.7393C278.059 40.6306 279.39 41.9325 281.681 41.9325C284.057 41.9325 285.472 40.5968 285.472 37.7731V32.6499H283.417V37.8915C283.417 39.5147 282.827 40.2755 281.748 40.2755C280.704 40.2755 280.097 39.4808 280.097 37.8915V32.6499H278.059ZM272.161 41.7804H274.217V34.3915H276.694V32.6499H269.702V34.3915H272.161V41.7804ZM260.569 34.2393C260.738 34.2055 261.058 34.1547 261.496 34.1547C263.282 34.1547 264.377 35.1523 264.377 37.063C264.377 39.2441 263.147 40.2755 261.277 40.2586C261.041 40.2586 260.738 40.2586 260.553 40.2248V34.2393H260.569ZM258.531 41.7465C259.036 41.8142 259.794 41.8818 260.873 41.8818C262.659 41.8818 264.125 41.5098 265.085 40.6982C265.944 39.9543 266.584 38.7538 266.584 36.9953C266.584 35.389 265.995 34.2562 265.051 33.563C264.192 32.9204 263.046 32.5823 261.311 32.5823C260.283 32.5823 259.306 32.6668 258.548 32.7852V41.7465H258.531ZM250.831 41.7804V39.0243C250.831 37.5364 250.797 36.2514 250.73 35.034H250.78C251.218 36.0992 251.825 37.2828 252.364 38.2634L254.302 41.7804H256.458V32.6499H254.588V35.3045C254.588 36.691 254.622 37.9253 254.757 39.1258H254.723C254.302 38.0944 253.779 36.9615 253.24 35.9977L251.353 32.6499H248.944V41.7804H250.831ZM242.221 37.8915L242.76 35.947C242.912 35.4229 243.047 34.7296 243.181 34.1886H243.215C243.35 34.7296 243.518 35.406 243.67 35.947L244.243 37.8915H242.221ZM244.529 39.4301L245.237 41.7804H247.461L244.63 32.6499H241.935L239.171 41.7804H241.294L241.935 39.4301H244.529ZM229.18 41.3407C229.685 41.6282 230.713 41.9156 231.758 41.9156C234.251 41.9156 235.414 40.6137 235.414 39.0919C235.414 37.8069 234.673 36.9615 233.072 36.3697C231.876 35.9301 231.387 35.6596 231.387 35.0847C231.387 34.6282 231.825 34.2055 232.718 34.2055C233.594 34.2055 234.251 34.4591 234.605 34.6451L235.06 32.9881C234.521 32.7345 233.78 32.5316 232.735 32.5316C230.595 32.5316 229.298 33.7151 229.298 35.2707C229.298 36.6064 230.292 37.4349 231.808 37.976C232.904 38.348 233.342 38.6862 233.342 39.2441C233.342 39.8359 232.836 40.2417 231.893 40.2417C231.016 40.2417 230.157 39.9543 229.618 39.6668L229.18 41.3407ZM221.834 41.7804V39.0243C221.834 37.5364 221.8 36.2514 221.733 35.034H221.783C222.221 36.0992 222.828 37.2828 223.367 38.2634L225.305 41.7804H227.461V32.6499H225.574V35.3045C225.574 36.691 225.608 37.9253 225.743 39.1258H225.709C225.288 38.0944 224.766 36.9615 224.226 35.9977L222.339 32.6499H219.93V41.7804H221.834ZM213.224 37.8915L213.763 35.947C213.915 35.4229 214.05 34.7296 214.184 34.1886H214.218C214.353 34.7296 214.521 35.406 214.673 35.947L215.246 37.8915H213.224ZM215.532 39.4301L216.24 41.7804H218.464L215.633 32.6499H212.938L210.174 41.7804H212.297L212.938 39.4301H215.532ZM202.087 41.7804H204.126V38.8045L204.901 37.8407L207.142 41.7804H209.534L206.383 36.5388L209.399 32.6499H206.855L204.8 35.6765C204.581 35.9977 204.362 36.319 204.159 36.6741H204.126V32.633H202.087V41.7804ZM194.926 41.7804H200.587V40.0557H196.965V32.6499H194.909V41.7804H194.926ZM188.203 37.8915L188.743 35.947C188.894 35.4229 189.029 34.7296 189.164 34.1886H189.198C189.332 34.7296 189.501 35.406 189.652 35.947L190.225 37.8915H188.203ZM190.512 39.4301L191.219 41.7804H193.443L190.613 32.6499H187.917L185.154 41.7804H187.277L187.917 39.4301H190.512ZM179.459 37.7393H180.167C181.194 37.7393 182.02 38.1113 182.02 39.0074C182.02 39.9712 181.194 40.3432 180.268 40.3432C179.914 40.3432 179.678 40.3432 179.476 40.3093V37.7393H179.459ZM179.459 34.1378C179.627 34.104 179.88 34.0871 180.335 34.0871C181.262 34.0871 181.801 34.4591 181.801 35.1523C181.801 35.8287 181.228 36.2852 180.133 36.2852H179.459V34.1378ZM177.42 41.7465C177.875 41.8142 178.633 41.8818 179.644 41.8818C181.464 41.8818 182.559 41.5775 183.216 41.0533C183.789 40.5968 184.16 39.9374 184.16 39.1089C184.16 37.9422 183.385 37.1475 182.357 36.877V36.8432C183.385 36.4543 183.856 35.7103 183.856 34.8987C183.856 34.0533 183.418 33.4446 182.778 33.0895C182.104 32.7006 181.329 32.5823 180.082 32.5823C179.038 32.5823 177.959 32.6837 177.42 32.7683V41.7465ZM166.991 41.7804V39.0243C166.991 37.5364 166.957 36.2514 166.89 35.034H166.94C167.378 36.0992 167.985 37.2828 168.524 38.2634L170.462 41.7804H172.618V32.6499H170.731V35.3045C170.731 36.691 170.765 37.9253 170.9 39.1258H170.866C170.445 38.0944 169.922 36.9615 169.383 35.9977L167.496 32.6499H165.087V41.7804H166.991ZM158.87 34.1886C159.021 34.1547 159.308 34.1209 159.796 34.1209C160.74 34.1209 161.313 34.5605 161.313 35.3721C161.313 36.1668 160.706 36.6741 159.678 36.6741H158.87V34.1886ZM156.831 41.7804H158.87V38.1789H159.476C160.335 38.1958 160.723 38.5002 160.976 39.6499C161.228 40.7828 161.464 41.5098 161.599 41.7804H163.705C163.537 41.4253 163.267 40.2248 162.981 39.1765C162.745 38.3311 162.408 37.7393 161.768 37.4857V37.4518C162.543 37.1644 163.368 36.3697 163.368 35.22C163.368 34.3915 163.065 33.732 162.526 33.3093C161.885 32.8021 160.925 32.5992 159.577 32.5992C158.465 32.5992 157.505 32.6837 156.831 32.7852V41.7804ZM154.758 36.2345H151.405V34.3407H154.961V32.6499H149.35V41.7804H155.146V40.0895H151.405V37.9253H154.758V36.2345ZM143.453 41.7804H145.508V34.3915H147.985V32.6499H140.993V34.3915H143.453V41.7804ZM133.782 41.3407C134.287 41.6282 135.315 41.9156 136.359 41.9156C138.853 41.9156 140.016 40.6137 140.016 39.0919C140.016 37.8069 139.274 36.9615 137.674 36.3697C136.477 35.9301 135.989 35.6596 135.989 35.0847C135.989 34.6282 136.427 34.2055 137.32 34.2055C138.196 34.2055 138.853 34.4591 139.207 34.6451L139.662 32.9881C139.123 32.7345 138.381 32.5316 137.337 32.5316C135.197 32.5316 133.899 33.7151 133.899 35.2707C133.899 36.6064 134.894 37.4349 136.41 37.976C137.505 38.348 137.943 38.6862 137.943 39.2441C137.943 39.8359 137.438 40.2417 136.494 40.2417C135.618 40.2417 134.759 39.9543 134.22 39.6668L133.782 41.3407ZM132.063 36.2345H128.71V34.3407H132.265V32.6499H126.671V41.7804H132.45V40.0895H128.71V37.9253H132.063V36.2345ZM118.112 41.7804L118.971 37.8576C119.19 36.9277 119.342 36.0654 119.494 35.034H119.527C119.628 36.0823 119.78 36.9277 119.965 37.8576L120.74 41.7804H122.965L125.307 32.6499H123.217L122.476 36.3697C122.291 37.4688 122.088 38.534 121.954 39.5485H121.92C121.785 38.534 121.633 37.5533 121.431 36.4881L120.707 32.633H118.516L117.741 36.3528C117.506 37.4857 117.303 38.5847 117.152 39.5823H117.118C116.966 38.6692 116.781 37.4857 116.579 36.3866L115.888 32.633H113.681L115.837 41.7634H118.112V41.7804ZM110.092 36.2345H106.739V34.3407H110.294V32.6499H104.7V41.7804H110.496V40.0895H106.756V37.9253H110.109V36.2345H110.092ZM95.1302 32.6499V41.7804H97.1857V37.9591H100.572V41.7804H102.611V32.6499H100.556V36.1668H97.1689V32.6499H95.1302ZM89.2162 41.7804H91.2718V34.3915H93.7486V32.6499H86.7563V34.3915H89.2162V41.7804ZM77.5568 41.7804V39.0243C77.5568 37.5364 77.5231 36.2514 77.4557 35.034H77.5062C77.9443 36.0992 78.5509 37.2828 79.09 38.2634L81.0277 41.7804H83.1843V32.6499H81.2972V35.3045C81.2972 36.691 81.3309 37.9253 81.4657 39.1258H81.432C81.0108 38.0944 80.4885 36.9615 79.9493 35.9977L78.0623 32.6499H75.6529V41.7804H77.5568ZM71.5586 41.7804H73.6142V32.6499H71.5586V41.7804Z" fill="#3EA5DA"/>
<path d="M280.163 25.0918C280.669 25.3792 281.697 25.6667 282.741 25.6667C285.235 25.6667 286.397 24.3647 286.397 22.843C286.397 21.558 285.656 20.7125 284.055 20.1208C282.859 19.6811 282.371 19.4106 282.371 18.8357C282.371 18.3792 282.809 17.9565 283.702 17.9565C284.578 17.9565 285.235 18.2101 285.589 18.3961L286.044 16.7391C285.504 16.4855 284.763 16.2826 283.718 16.2826C281.579 16.2826 280.281 17.4662 280.281 19.0217C280.281 20.3575 281.275 21.186 282.792 21.727C283.887 22.099 284.325 22.4372 284.325 22.9952C284.325 23.5869 283.82 23.9927 282.876 23.9927C282 23.9927 281.141 23.7053 280.601 23.4179L280.163 25.0918ZM272.817 25.5145V22.7584C272.817 21.2705 272.784 19.9855 272.716 18.7681H272.767C273.205 19.8333 273.811 21.0169 274.35 21.9976L276.305 25.5145H278.462V16.401H276.575V19.0555C276.575 20.442 276.608 21.6763 276.743 22.8768H276.709C276.288 21.8454 275.766 20.7125 275.227 19.7488L273.323 16.401H270.93V25.5314H272.817V25.5145ZM264.949 17.872C266.364 17.872 267.139 19.2754 267.139 20.9324C267.139 22.7077 266.347 24.0435 264.949 24.0435C263.567 24.0435 262.742 22.7753 262.742 20.9831C262.725 19.1908 263.533 17.872 264.949 17.872ZM264.982 16.2319C262.304 16.2319 260.551 18.2778 260.551 21.0169C260.551 23.6377 262.135 25.6836 264.831 25.6836C267.51 25.6836 269.296 23.8744 269.296 20.8816C269.296 18.3285 267.779 16.2319 264.982 16.2319ZM256.878 25.5145H258.934V16.401H256.878V25.5145ZM250.964 25.5145H253.02V18.1087H255.497V16.401H248.504V18.1256H250.964V25.5145ZM243.601 21.6425L244.14 19.6981C244.292 19.1739 244.427 18.4807 244.562 17.9396H244.595C244.73 18.4807 244.899 19.157 245.05 19.6981L245.623 21.6425H243.601ZM245.91 23.1811L246.617 25.5314H248.841L246.011 16.401H243.315L240.552 25.5314H242.675L243.315 23.1811H245.91ZM233.273 25.0918C233.778 25.3792 234.806 25.6667 235.851 25.6667C238.344 25.6667 239.507 24.3647 239.507 22.843C239.507 21.558 238.766 20.7125 237.165 20.1208C235.969 19.6811 235.48 19.4106 235.48 18.8357C235.48 18.3792 235.918 17.9565 236.811 17.9565C237.687 17.9565 238.344 18.2101 238.698 18.3961L239.153 16.7391C238.614 16.4855 237.873 16.2826 236.828 16.2826C234.688 16.2826 233.391 17.4662 233.391 19.0217C233.391 20.3575 234.385 21.186 235.901 21.727C236.996 22.099 237.435 22.4372 237.435 22.9952C237.435 23.5869 236.929 23.9927 235.986 23.9927C235.109 23.9927 234.25 23.7053 233.711 23.4179L233.273 25.0918ZM229.516 25.5145H231.571V16.401H229.516V25.5145ZM221.816 25.5145V22.7584C221.816 21.2705 221.782 19.9855 221.715 18.7681H221.765C222.203 19.8333 222.81 21.0169 223.349 21.9976L225.287 25.5145H227.443V16.401H225.556V19.0555C225.556 20.442 225.59 21.6763 225.725 22.8768H225.691C225.27 21.8454 224.747 20.7125 224.208 19.7488L222.321 16.401H219.912V25.5314H221.816V25.5145ZM213.223 21.6425L213.762 19.6981C213.913 19.1739 214.048 18.4807 214.183 17.9396H214.217C214.352 18.4807 214.52 19.157 214.672 19.6981L215.245 21.6425H213.223ZM215.531 23.1811L216.239 25.5314H218.463L215.632 16.401H212.936L210.173 25.5314H212.296L212.936 23.1811H215.531ZM208.926 20.3068H205.54V21.913H206.938V23.8237C206.77 23.8913 206.399 23.942 205.944 23.942C204.259 23.942 203.063 22.843 203.063 20.9662C203.063 18.971 204.377 17.9903 206.096 17.9903C207.09 17.9903 207.696 18.1594 208.202 18.3792L208.64 16.7053C208.185 16.5193 207.292 16.2826 206.112 16.2826C203.13 16.2826 200.923 18.0072 200.906 21.0676C200.906 22.4034 201.361 23.5869 202.187 24.3816C203.029 25.1763 204.225 25.599 205.893 25.599C207.09 25.599 208.303 25.2947 208.926 25.0918V20.3068ZM195.144 17.9396C195.295 17.9058 195.582 17.872 196.071 17.872C197.014 17.872 197.587 18.3116 197.587 19.1232C197.587 19.9179 196.98 20.4251 195.953 20.4251H195.144V17.9396ZM193.105 25.5145H195.144V21.913H195.75C196.593 21.9299 196.997 22.2343 197.25 23.384C197.503 24.5169 197.739 25.2439 197.873 25.5145H199.979C199.811 25.1594 199.541 23.9589 199.255 22.9106C199.019 22.0652 198.682 21.4734 198.042 21.2198V21.186C198.817 20.8985 199.643 20.1039 199.643 18.9541C199.643 18.1087 199.339 17.4662 198.8 17.0435C198.16 16.5362 197.216 16.3333 195.852 16.3333C194.739 16.3333 193.779 16.4179 193.105 16.5193V25.5145ZM187.124 17.872C188.539 17.872 189.314 19.2754 189.314 20.9324C189.314 22.7077 188.522 24.0435 187.124 24.0435C185.742 24.0435 184.917 22.7753 184.917 20.9831C184.9 19.1908 185.708 17.872 187.124 17.872ZM187.157 16.2319C184.479 16.2319 182.726 18.2778 182.726 21.0169C182.726 23.6377 184.31 25.6836 187.006 25.6836C189.685 25.6836 191.471 23.8744 191.471 20.8816C191.488 18.3285 189.954 16.2319 187.157 16.2319ZM176.172 25.5145V21.7101L179.171 16.384H176.863L175.936 18.5821C175.667 19.2246 175.448 19.7657 175.245 20.3237H175.212C174.993 19.7319 174.79 19.2415 174.504 18.5821L173.577 16.384H171.218L174.1 21.7778V25.5145H176.172ZM166.029 25.5145H168.085V18.1087H170.561V16.401H163.569V18.1256H166.029V25.5145ZM162.12 19.9855H158.767V18.0918H162.322V16.401H156.728V25.5314H162.524V23.8406H158.784V21.6763H162.137V19.9855H162.12ZM152.6 25.5145H154.656V16.401H152.6V25.5145ZM150.663 23.6546C150.242 23.8237 149.568 23.9589 148.927 23.9589C147.108 23.9589 146.029 22.8092 146.029 20.9831C146.029 18.9541 147.293 17.9565 148.91 17.9565C149.652 17.9565 150.242 18.1256 150.646 18.2947L151.084 16.6715C150.713 16.4686 149.905 16.2657 148.843 16.2657C146.097 16.2657 143.873 17.9903 143.873 21.1014C143.873 23.7053 145.49 25.6836 148.641 25.6836C149.736 25.6836 150.595 25.4638 150.966 25.2947L150.663 23.6546ZM138.313 17.872C139.728 17.872 140.503 19.2754 140.503 20.9324C140.503 22.7077 139.711 24.0435 138.313 24.0435C136.931 24.0435 136.089 22.7753 136.089 20.9831C136.089 19.1908 136.897 17.872 138.313 17.872ZM138.346 16.2319C135.667 16.2319 133.915 18.2778 133.915 21.0169C133.915 23.6377 135.516 25.6836 138.195 25.6836C140.874 25.6836 142.66 23.8744 142.66 20.8816C142.66 18.3285 141.143 16.2319 138.346 16.2319ZM126.434 25.0918C126.94 25.3792 127.967 25.6667 129.012 25.6667C131.506 25.6667 132.668 24.3647 132.668 22.843C132.668 21.558 131.927 20.7125 130.326 20.1208C129.13 19.6811 128.641 19.4106 128.641 18.8357C128.641 18.3792 129.079 17.9565 129.972 17.9565C130.849 17.9565 131.506 18.2101 131.859 18.3961L132.314 16.7391C131.775 16.4855 131.034 16.2826 129.989 16.2826C127.849 16.2826 126.552 17.4662 126.552 19.0217C126.552 20.3575 127.546 21.186 129.063 21.727C130.158 22.099 130.596 22.4372 130.596 22.9952C130.596 23.5869 130.09 23.9927 129.147 23.9927C128.271 23.9927 127.411 23.7053 126.872 23.4179L126.434 25.0918ZM116.898 25.5145H122.559V23.7898H118.953V16.401H116.898V25.5145ZM112.786 25.5145H114.842V16.401H112.786V25.5145ZM108.456 25.5145L111.523 16.384H109.332L108.17 20.2898C107.867 21.3382 107.58 22.4203 107.344 23.5193H107.311C107.092 22.3865 106.805 21.3551 106.502 20.256L105.39 16.401H103.132L106.047 25.5314H108.456V25.5145ZM99.8129 25.5145H101.868V16.401H99.8129V25.5145ZM97.8584 23.6546C97.4372 23.8237 96.7632 23.9589 96.1229 23.9589C94.3033 23.9589 93.2249 22.8092 93.2249 20.9831C93.2249 18.9541 94.4886 17.9565 96.1061 17.9565C96.8474 17.9565 97.4372 18.1256 97.8415 18.2947L98.2796 16.6715C97.9089 16.4686 97.1002 16.2657 96.0387 16.2657C93.2923 16.2657 91.0683 17.9903 91.0683 21.1014C91.0683 23.7053 92.6858 25.6836 95.8365 25.6836C96.9317 25.6836 97.791 25.4638 98.1617 25.2947L97.8584 23.6546ZM82.7786 17.872C84.1939 17.872 84.969 19.2754 84.969 20.9324C84.969 22.7077 84.1771 24.0435 82.7786 24.0435C81.397 24.0435 80.5714 22.7753 80.5714 20.9831C80.5714 19.1908 81.3802 17.872 82.7786 17.872ZM82.8292 16.2319C80.1502 16.2319 78.3979 18.2778 78.3979 21.0169C78.3979 23.6377 79.9817 25.6836 82.6775 25.6836C85.3565 25.6836 87.1425 23.8744 87.1425 20.8816C87.1425 18.3285 85.6261 16.2319 82.8292 16.2319ZM73.3095 25.5145H75.3651V18.1087H77.8419V16.401H70.8496V18.1256H73.3095V25.5145Z" fill="#2E388D"/>
<path d="M239.913 3.71981H236.56V1.82609H240.115V0.135266H234.521V9.2657H240.317V7.57488H236.577V5.41063H239.93V3.71981H239.913ZM232.567 7.38889C232.145 7.55797 231.471 7.69324 230.831 7.69324C229.011 7.69324 227.933 6.54348 227.933 4.71739C227.933 2.68841 229.197 1.69082 230.814 1.69082C231.556 1.69082 232.128 1.8599 232.55 2.02899L232.988 0.405797C232.617 0.202899 231.808 0 230.747 0C228.001 0 225.776 1.72464 225.776 4.83575C225.776 7.43961 227.394 9.41787 230.545 9.41787C231.64 9.41787 232.499 9.19807 232.87 9.02899L232.567 7.38889ZM218.515 9.2657V6.50966C218.515 5.02174 218.481 3.73671 218.414 2.51932H218.464C218.902 3.58454 219.509 4.76812 220.048 5.74879L222.002 9.2657H224.159V0.135266H222.272V2.78986C222.272 4.17633 222.306 5.41063 222.44 6.61111H222.407C221.985 5.57971 221.463 4.44686 220.924 3.48309L219.037 0.135266H216.628V9.2657H218.515ZM209.905 5.37681L210.444 3.43237C210.596 2.90821 210.73 2.21498 210.865 1.67391H210.899C211.034 2.21498 211.202 2.8913 211.354 3.43237L211.927 5.37681H209.905ZM212.213 6.91546L212.921 9.2657H215.145L212.314 0.135266H209.618L206.855 9.2657H208.978L209.618 6.91546H212.213ZM202.559 9.2657H204.614V1.8599H207.091V0.135266H200.099V1.8599H202.559V9.2657ZM192.887 8.82609C193.393 9.11353 194.421 9.40097 195.465 9.40097C197.959 9.40097 199.122 8.09903 199.122 6.57729C199.122 5.29227 198.38 4.44686 196.78 3.85507C195.583 3.41546 195.095 3.14493 195.095 2.57005C195.095 2.11353 195.533 1.69082 196.426 1.69082C197.302 1.69082 197.959 1.94444 198.313 2.13043L198.768 0.47343C198.229 0.219807 197.487 0.0169082 196.443 0.0169082C194.303 0.0169082 193.005 1.20048 193.005 2.75604C193.005 4.09179 193.999 4.92029 195.516 5.46135C196.611 5.83333 197.049 6.1715 197.049 6.72947C197.049 7.32126 196.544 7.72705 195.6 7.72705C194.724 7.72705 193.865 7.43961 193.326 7.15217L192.887 8.82609ZM189.13 9.2657H191.186V0.135266H189.13V9.2657ZM181.211 8.82609C181.717 9.11353 182.744 9.40097 183.789 9.40097C186.283 9.40097 187.445 8.09903 187.445 6.57729C187.445 5.29227 186.704 4.44686 185.103 3.85507C183.907 3.41546 183.418 3.14493 183.418 2.57005C183.418 2.11353 183.856 1.69082 184.749 1.69082C185.626 1.69082 186.283 1.94444 186.636 2.13043L187.091 0.47343C186.552 0.219807 185.811 0.0169082 184.766 0.0169082C182.626 0.0169082 181.329 1.20048 181.329 2.75604C181.329 4.09179 182.323 4.92029 183.84 5.46135C184.935 5.83333 185.373 6.1715 185.373 6.72947C185.373 7.32126 184.867 7.72705 183.924 7.72705C183.048 7.72705 182.188 7.43961 181.649 7.15217L181.211 8.82609ZM173.646 8.82609C174.151 9.11353 175.179 9.40097 176.224 9.40097C178.718 9.40097 179.88 8.09903 179.88 6.57729C179.88 5.29227 179.139 4.44686 177.538 3.85507C176.342 3.41546 175.853 3.14493 175.853 2.57005C175.853 2.11353 176.291 1.69082 177.184 1.69082C178.06 1.69082 178.718 1.94444 179.071 2.13043L179.526 0.47343C178.987 0.219807 178.246 0.0169082 177.201 0.0169082C175.061 0.0169082 173.764 1.20048 173.764 2.75604C173.764 4.09179 174.758 4.92029 176.274 5.46135C177.37 5.83333 177.808 6.1715 177.808 6.72947C177.808 7.32126 177.302 7.72705 176.359 7.72705C175.483 7.72705 174.623 7.43961 174.084 7.15217L173.646 8.82609ZM167.294 5.37681L167.833 3.43237C167.985 2.90821 168.12 2.21498 168.254 1.67391H168.288C168.423 2.21498 168.591 2.8913 168.743 3.43237L169.316 5.37681H167.294ZM169.602 6.91546L170.31 9.2657H172.534L169.703 0.135266H167.008L164.244 9.2657H166.367L167.008 6.91546H169.602ZM154.994 9.2657H160.656V7.54106H157.033V0.135266H154.977V9.2657H154.994ZM148.272 5.37681L148.811 3.43237C148.962 2.90821 149.097 2.21498 149.232 1.67391H149.266C149.4 2.21498 149.569 2.8913 149.721 3.43237L150.293 5.37681H148.272ZM150.58 6.91546L151.288 9.2657H153.512L150.681 0.135266H147.985L145.222 9.2657H147.345L147.985 6.91546H150.58ZM143.79 7.38889C143.369 7.55797 142.695 7.69324 142.054 7.69324C140.235 7.69324 139.156 6.54348 139.156 4.71739C139.156 2.68841 140.42 1.69082 142.037 1.69082C142.779 1.69082 143.369 1.8599 143.773 2.02899L144.211 0.405797C143.84 0.202899 143.032 0 141.97 0C139.224 0 137 1.72464 137 4.83575C137 7.43961 138.617 9.41787 141.768 9.41787C142.863 9.41787 143.722 9.19807 144.093 9.02899L143.79 7.38889ZM133.31 9.2657H135.365V0.135266H133.31V9.2657ZM125.61 9.2657V6.50966C125.61 5.02174 125.576 3.73671 125.509 2.51932H125.559C125.997 3.58454 126.604 4.76812 127.143 5.74879L129.081 9.2657H131.254V0.135266H129.367V2.78986C129.367 4.17633 129.401 5.41063 129.536 6.61111H129.502C129.081 5.57971 128.558 4.44686 128.019 3.48309L126.115 0.135266H123.723V9.2657H125.61ZM114.153 0.135266V9.2657H116.208V5.44444H119.595V9.2657H121.65V0.135266H119.595V3.65217H116.208V0.135266H114.153ZM112.215 7.38889C111.794 7.55797 111.12 7.69324 110.48 7.69324C108.66 7.69324 107.582 6.54348 107.582 4.71739C107.582 2.68841 108.845 1.69082 110.463 1.69082C111.204 1.69082 111.794 1.8599 112.198 2.02899L112.636 0.405797C112.266 0.202899 111.457 0 110.395 0C107.649 0 105.425 1.72464 105.425 4.83575C105.425 7.43961 107.042 9.41787 110.193 9.41787C111.288 9.41787 112.148 9.19807 112.518 9.02899L112.215 7.38889ZM103.774 3.71981H100.421V1.82609H103.976V0.135266H98.382V9.2657H104.178V7.57488H100.438V5.41063H103.791V3.71981H103.774ZM92.4681 9.2657H94.5236V1.8599H97.0004V0.135266H90.0081V1.8599H92.4681V9.2657ZM79.0226 0.135266V5.22464C79.0226 8.11594 80.3537 9.41787 82.662 9.41787C85.0377 9.41787 86.453 8.08213 86.453 5.25845V0.135266H84.3974V5.37681C84.3974 7 83.8077 7.76087 82.7294 7.76087C81.6848 7.76087 81.0782 6.96618 81.0782 5.37681V0.135266H79.0226ZM76.9502 3.71981H73.5973V1.82609H77.1524V0.135266H71.5586V9.2657H77.3378V7.57488H73.5973V5.41063H76.9502V3.71981Z" fill="#2E388D"/>
</g>
<defs>
<clipPath id="clip0_82_3240">
<rect width="319" height="42" fill="white"/>
</clipPath>
</defs>
</svg>
