<svg width="376" height="298" viewBox="0 0 376 298" fill="none" xmlns="http://www.w3.org/2000/svg">
<g clip-path="url(#clip0_98_2699)">
<path fill-rule="evenodd" clip-rule="evenodd" d="M66.2191 11.0578C66.3289 10.5881 66.4277 10.1121 66.5376 9.6424L74.1983 7.85566L76.8983 8.56446L66.2191 11.0578ZM65.8282 12.8779L80.3753 9.47696L83.0753 10.1858L65.5441 14.2844C65.643 13.8084 65.7356 13.3432 65.8282 12.8779ZM65.1939 16.0848L86.5414 11.0919L87.2007 11.2709C87.114 11.6242 87.0211 11.9884 86.9344 12.3418L64.9272 17.4868C65.0088 17.0153 65.1014 16.5501 65.1939 16.0848ZM64.6052 19.2892L86.498 14.1645C86.3882 14.6342 86.2784 15.1038 86.1795 15.5799L64.3729 20.6823C64.4483 20.2215 64.5299 19.75 64.6052 19.2892ZM64.0854 22.4757L85.7886 17.4C85.696 17.8653 85.5972 18.3413 85.5046 18.8065L63.8766 23.8535C63.9409 23.3864 64.0101 22.9365 64.0854 22.4757ZM63.6236 25.6381L85.1544 20.607C85.0618 21.0722 84.9802 21.5437 84.9049 22.0045L63.443 27.0178C63.5011 26.5615 63.5592 26.1052 63.6236 25.6381ZM63.2245 28.7934L84.5891 23.796C84.5138 24.2568 84.4322 24.7284 84.3568 25.1891L63.0611 30.1687C63.1192 29.7124 63.1664 29.2497 63.2245 28.7934ZM62.8771 31.9354L84.0866 26.9781C84.0222 27.4452 83.9531 27.8952 83.8888 28.3623L62.742 33.3126C62.7828 32.8607 62.83 32.3981 62.8771 31.9354ZM62.5814 35.064L83.653 30.1424C83.5949 30.5987 83.5305 31.0658 83.4834 31.5284L62.4807 36.4323C62.5106 35.9741 62.5515 35.5222 62.5814 35.064ZM62.3484 38.1856L83.2821 33.2996C83.235 33.7623 83.1941 34.2141 83.147 34.6768L62.265 39.5494C62.2949 39.0912 62.3185 38.6438 62.3484 38.1856ZM62.1734 41.2831L82.9754 36.4219C82.9346 36.8737 82.8937 37.3256 82.8638 37.7838L62.1072 42.6424C62.1309 42.195 62.1545 41.7476 62.1734 41.2831ZM62.0438 44.3779L82.7315 39.5371C82.7016 39.9953 82.6779 40.4427 82.6481 40.9009L62.0122 45.7284C62.0186 45.2854 62.0312 44.8317 62.0438 44.3779ZM61.977 47.4658L82.5612 42.6517C82.5376 43.0991 82.5249 43.5529 82.5013 44.0003L61.9688 48.801C61.9642 48.3517 61.9706 47.9087 61.977 47.4658ZM61.9571 50.5231L82.4379 45.7358C82.4253 46.1895 82.4189 46.6325 82.4062 47.0862L61.9599 51.8646C61.9553 51.4154 61.9617 50.9724 61.9571 50.5231ZM61.9827 53.5779L82.3773 48.8128C82.3709 49.2558 82.3755 49.7051 82.3691 50.148L62.02 54.9105C62.0092 54.472 61.9983 54.0335 61.9827 53.5779ZM62.0711 56.6257L82.3684 51.8765C82.373 52.3258 82.3839 52.7643 82.3885 53.2136L62.1256 57.9538C62.1037 57.509 62.0929 57.0705 62.0711 56.6257ZM62.2111 59.6601L82.4395 54.9287C82.4503 55.3672 82.4722 55.8121 82.4768 56.2613L62.2828 60.9838C62.25 60.5326 62.2219 60.0985 62.2111 59.6601ZM62.3918 62.6747L82.5513 57.9612C82.5731 58.4061 82.595 58.8509 82.623 59.2849L62.4808 63.994C62.4527 63.56 62.4137 63.1196 62.3918 62.6747ZM62.6181 65.6869L82.7148 60.9804C82.7429 61.4144 82.7757 61.8656 82.8038 62.2996L62.7305 66.9908C62.7024 66.5568 62.6634 66.1164 62.6181 65.6869ZM62.9022 68.6748L82.941 63.9925C82.9801 64.4329 83.0082 64.8669 83.0535 65.2965L63.0429 69.9807C62.9976 69.5511 62.9523 69.1215 62.9022 68.6748ZM63.2319 71.6602L83.219 66.9913C83.2643 67.4208 83.3144 67.8676 83.3597 68.2971L63.4008 72.968C63.3445 72.5321 63.2882 72.0961 63.2319 71.6602ZM63.6243 74.6386L83.5659 69.9722C83.6222 70.4081 83.6675 70.8377 83.7238 71.2736L63.7994 75.9355C63.7369 75.5104 63.6806 75.0745 63.6243 74.6386ZM64.0401 77.6017L83.9472 72.9442C84.0035 73.3801 84.0661 73.8053 84.1396 74.2367L64.2497 78.8897C64.1762 78.4583 64.1136 78.0332 64.0401 77.6017ZM64.5187 80.5578L84.3913 75.9092C84.4649 76.3407 84.5274 76.7658 84.601 77.1973L64.7455 81.8414C64.672 81.4099 64.5984 80.9785 64.5187 80.5578ZM65.0379 83.4942L84.8871 78.8609C84.9607 79.2923 85.0404 79.713 85.125 80.1508L65.2821 84.7733C65.2023 84.3527 65.1287 83.9212 65.0379 83.4942ZM65.6199 86.4236L85.4581 81.7839C85.5489 82.2109 85.6287 82.6316 85.7195 83.0586L65.8813 87.6983C65.7905 87.2712 65.6997 86.8442 65.6199 86.4236ZM66.2364 89.344L86.0573 84.7088C86.1481 85.1358 86.2451 85.552 86.3359 85.979L66.515 90.6143C66.4242 90.1872 66.3272 89.771 66.2364 89.344ZM66.9046 92.2511L86.7145 87.6096C86.8115 88.0258 86.9133 88.4591 87.0213 88.8817L67.2004 93.5169C67.1096 93.0899 67.0016 92.6673 66.9046 92.2511ZM67.6135 95.1385L87.4282 90.5141C87.5362 90.9367 87.6442 91.3592 87.7585 91.771L67.9375 96.4062C67.8295 95.9836 67.7215 95.5611 67.6135 95.1385ZM68.3788 98.0297L88.1888 93.3881C88.303 93.7999 88.4221 94.2288 88.5363 94.6405L68.7264 99.2821C68.6011 98.864 68.4869 98.4522 68.3788 98.0297ZM69.1849 100.901L89.0059 96.2659C89.1311 96.684 89.2564 97.1021 89.3816 97.5202L69.5435 102.16C69.4245 101.731 69.2992 101.313 69.1849 100.901ZM70.0365 103.77L89.8809 99.1196C90.0062 99.5377 90.1487 99.9513 90.2739 100.369L70.4185 105.014C70.2932 104.595 70.168 104.177 70.0365 103.77ZM70.935 106.608L90.8077 101.96C90.9502 102.373 91.0927 102.787 91.2352 103.201L71.3453 107.854C71.2028 107.44 71.0713 107.033 70.935 106.608ZM71.89 109.451L91.7909 104.804C91.9334 105.218 92.0931 105.627 92.2356 106.04L72.3175 110.692C72.175 110.278 72.0325 109.864 71.89 109.451ZM72.8795 112.284L92.8148 107.628C92.9746 108.037 93.1233 108.44 93.2768 108.86L73.3414 113.516C73.1817 113.107 73.033 112.704 72.8795 112.284ZM73.9316 115.11L93.9077 110.435C94.0675 110.844 94.2272 111.253 94.4042 111.658L74.3999 116.331C74.2401 115.922 74.0804 115.513 73.9316 115.11ZM75.0135 117.91L95.0413 113.222C95.2183 113.626 95.3781 114.036 95.555 114.44L75.51 119.133C75.3503 118.724 75.1843 118.326 75.0135 117.91ZM76.1582 120.703L96.2487 116.008C96.4257 116.412 96.6026 116.817 96.7968 117.217L76.6719 121.922C76.5059 121.524 76.3289 121.119 76.1582 120.703ZM77.3482 123.494L97.4905 118.785C97.6847 119.185 97.8617 119.59 98.0559 119.99L77.8792 124.708C77.7022 124.303 77.5252 123.899 77.3482 123.494ZM78.5963 126.26L98.8075 121.534C99.0017 121.934 99.1959 122.334 99.4011 122.741L79.1555 127.477C78.9613 127.076 78.7733 126.665 78.5963 126.26ZM79.8788 129.018L100.17 124.28C100.375 124.686 100.576 125.076 100.787 125.472L80.4552 130.23C80.261 129.829 80.0668 129.429 79.8788 129.018ZM81.2178 131.779L101.595 127.019C101.807 127.415 102.018 127.81 102.23 128.206L81.8177 132.976C81.6125 132.569 81.4183 132.169 81.2178 131.779ZM82.6038 134.51L103.067 129.727C103.29 130.129 103.507 130.514 103.736 130.906L83.2209 135.702C83.0204 135.313 82.809 134.917 82.6038 134.51ZM84.0462 137.245L104.613 132.435C104.842 132.826 105.071 133.218 105.299 133.609L84.6868 138.421C84.4691 138.036 84.2576 137.64 84.0462 137.245ZM85.5356 139.949L106.206 135.112C106.446 135.51 106.681 135.891 106.927 136.278L86.2044 141.127C85.9867 140.742 85.758 140.351 85.5356 139.949ZM87.0814 142.657L107.866 137.8C108.112 138.187 108.358 138.574 108.615 138.967L87.7675 143.831C87.5388 143.439 87.3101 143.048 87.0814 142.657ZM88.668 145.345L109.591 140.452C109.848 140.846 110.1 141.222 110.363 141.604L89.3948 146.499C89.1536 146.129 88.9139 145.732 88.668 145.345ZM90.3235 148.015L111.367 143.091C111.63 143.474 111.904 143.863 112.167 144.245L91.0661 149.193C90.8091 148.8 90.5695 148.402 90.3235 148.015ZM92.0355 150.689L113.228 145.736C113.502 146.125 113.782 146.503 114.063 146.881L92.7906 151.845C92.5446 151.459 92.2877 151.065 92.0355 150.689ZM93.7945 153.333L115.142 148.34C115.422 148.718 115.714 149.102 115.994 149.48L94.5777 154.491C94.3146 154.108 94.0577 153.715 93.7945 153.333ZM95.6161 155.969L117.13 150.943C117.427 151.316 117.719 151.701 118.016 152.074L96.4339 157.119C96.1535 156.741 95.8793 156.352 95.6161 155.969ZM97.4895 158.593L119.175 153.521C119.484 153.901 119.782 154.275 120.097 154.644L98.3245 159.737C98.0441 159.359 97.7637 158.981 97.4895 158.593ZM99.4256 161.209L121.301 156.088C121.616 156.458 121.931 156.827 122.257 157.202L100.284 162.338C100.004 161.96 99.706 161.587 99.4256 161.209ZM101.42 163.801L123.507 158.644C123.833 159.02 124.165 159.384 124.497 159.749L102.317 164.939C102.015 164.548 101.717 164.174 101.42 163.801ZM103.483 166.375L125.788 161.171C126.131 161.542 126.463 161.907 126.812 162.267L104.415 167.504C104.1 167.135 103.791 166.755 103.483 166.375ZM105.608 168.942L128.144 163.67C128.493 164.03 128.847 164.407 129.203 164.757L106.553 170.049C106.232 169.691 105.917 169.322 105.608 168.942ZM107.797 171.502L130.585 166.174C130.945 166.54 131.312 166.896 131.678 167.252L108.776 172.601C108.444 172.236 108.129 171.867 107.797 171.502ZM110.049 174.027L133.107 168.639C133.484 169.001 133.862 169.363 134.246 169.714L111.068 175.134C110.718 174.774 110.393 174.398 110.049 174.027ZM112.376 176.552L135.72 171.098C136.115 171.456 136.499 171.807 136.893 172.165L113.411 177.654C113.068 177.283 112.725 176.912 112.376 176.552ZM114.777 179.048L138.432 173.514C138.833 173.861 139.245 174.214 139.646 174.561L115.843 180.124C115.498 179.781 115.138 179.414 114.777 179.048ZM117.253 181.543L141.246 175.931C141.658 176.284 142.087 176.633 142.505 176.975L118.357 182.628C117.986 182.255 117.619 181.899 117.253 181.543ZM119.809 183.999L144.169 178.31C144.598 178.659 145.045 179.003 145.48 179.341L120.948 185.074C120.564 184.723 120.187 184.361 119.809 183.999ZM122.44 186.454L147.19 180.674C147.636 181.018 148.089 181.352 148.547 181.702L123.607 187.531C123.218 187.163 122.824 186.805 122.44 186.454ZM125.145 188.881L150.32 183C150.784 183.34 151.265 183.675 151.729 184.015L126.364 189.945C125.958 189.581 125.557 189.234 125.145 188.881ZM127.954 191.28L153.588 185.29C154.069 185.625 154.567 185.956 155.055 186.281L129.214 192.325C128.796 191.982 128.377 191.64 127.954 191.28ZM130.854 193.675L156.982 187.566C157.491 187.904 157.996 188.224 158.511 188.55L132.148 194.71C131.719 194.362 131.29 194.013 130.854 193.675ZM133.847 196.037L160.531 189.803C161.063 190.125 161.596 190.447 162.129 190.769L135.193 197.059C134.729 196.719 134.293 196.381 133.847 196.037ZM136.942 198.372L164.223 191.992C164.773 192.31 165.334 192.634 165.891 192.94L138.34 199.38C137.859 199.045 137.389 198.716 136.942 198.372ZM140.135 200.691L168.076 194.159C168.655 194.479 169.239 194.787 169.823 195.096L141.579 201.697C141.087 201.355 140.617 201.026 140.135 200.691ZM143.449 202.978L172.119 196.277C172.731 196.587 173.333 196.892 173.952 197.191L144.933 203.965C144.435 203.634 143.947 203.309 143.449 202.978ZM146.884 205.235L176.362 198.352C176.998 198.647 177.645 198.949 178.281 199.244L148.424 206.225C147.897 205.892 147.393 205.572 146.884 205.235ZM150.439 207.46L180.818 200.363C181.489 200.649 182.17 200.942 182.852 201.235L152.037 208.426C151.498 208.115 150.965 207.793 150.439 207.46ZM154.136 209.667L185.538 202.324C186.254 202.608 186.97 202.892 187.692 203.165L155.797 210.626C155.236 210.302 154.686 209.985 154.136 209.667ZM358.541 166.2L358.616 166.273L358.427 166.322L358.541 166.2ZM157.978 211.828L190.544 204.22C191.305 204.502 192.069 204.755 192.836 205.025L159.708 212.769C159.13 212.449 158.556 212.147 157.978 211.828ZM356.177 168.567L360.028 167.664L361.132 168.748L354.349 170.336C354.97 169.743 355.574 169.155 356.177 168.567ZM161.986 213.954L195.878 206.032C196.691 206.3 197.517 206.546 198.325 206.797L163.774 214.871C163.183 214.573 162.582 214.269 161.986 213.954ZM351.882 172.628L362.544 170.14L363.648 171.224L349.853 174.44C350.537 173.84 351.209 173.234 351.882 172.628ZM166.166 216.036L201.613 207.758C202.434 207.988 203.255 208.217 204.082 208.435L204.183 208.464L204.244 208.485L168.045 216.948C167.415 216.642 166.796 216.343 166.166 216.036ZM347.11 176.803L365.066 172.604L366.171 173.689L344.84 178.677C345.604 178.066 346.362 177.438 347.11 176.803ZM170.53 218.08L207.807 209.375C208.776 209.603 209.733 209.824 210.697 210.035L172.512 218.966C171.848 218.668 171.195 218.378 170.53 218.08ZM341.741 181.124L367.593 175.086L368.698 176.17L339.15 183.071C340.017 182.433 340.879 181.778 341.741 181.124ZM175.118 220.066L214.605 210.836C215.67 211.048 216.749 211.238 217.816 211.422L177.193 220.919C176.499 220.647 175.811 220.366 175.118 220.066ZM335.564 185.625L370.098 177.555L371.203 178.64L332.542 187.684C333.564 187.006 334.575 186.322 335.564 185.625ZM179.935 222.012L222.199 212.137C223.413 212.32 224.629 212.474 225.845 212.629L182.124 222.843C181.39 222.564 180.657 222.285 179.935 222.012ZM328.272 190.406L372.625 180.037L373.212 180.621C372.954 180.89 372.679 181.163 372.421 181.432L324.573 192.621C325.819 191.885 327.048 191.154 328.272 190.406ZM185.016 223.879L230.913 213.149C232.352 213.273 233.797 213.387 235.226 213.478L187.326 224.68C186.552 224.42 185.784 224.15 185.016 223.879ZM319.151 195.585L370.149 183.665C369.539 184.264 368.925 184.845 368.31 185.427L314.201 198.087C315.864 197.289 317.518 196.458 319.151 195.585ZM190.396 225.689L241.445 213.755C243.307 213.807 245.166 213.814 247.015 213.786L192.849 226.443C192.035 226.203 191.215 225.946 190.396 225.689ZM306.167 201.689L365.848 187.737C365.186 188.349 364.503 188.949 363.836 189.544L296.948 205.184C300.053 204.124 303.125 202.944 306.167 201.689ZM197.594 227.827L197.561 227.808C197.08 227.675 196.6 227.542 196.12 227.408L255.846 213.453C259.139 213.237 262.42 212.912 265.685 212.492L198.751 228.135L197.594 227.827ZM202.262 229.039L361.11 191.903C360.369 192.527 359.627 193.15 358.892 193.763L205.1 229.712C204.154 229.497 203.213 229.271 202.262 229.039ZM208.933 230.542L355.873 196.198C355.046 196.844 354.218 197.49 353.386 198.119L212.034 231.165C210.997 230.955 209.964 230.762 208.933 230.542ZM216.235 231.89L349.982 200.635C349.045 201.318 348.103 201.985 347.156 202.634L219.692 232.431C218.539 232.27 217.387 232.08 216.235 231.89ZM224.409 233.051L343.208 205.282C342.104 205.999 341.007 206.705 339.888 207.399L228.331 233.471C227.04 233.345 225.727 233.207 224.409 233.051ZM233.84 233.914L335.2 210.21C333.855 210.99 332.488 211.757 331.123 212.496L238.532 234.145C236.965 234.09 235.399 234.008 233.84 233.914ZM245.331 234.281L325.12 215.629C323.286 216.544 321.432 217.418 319.579 218.265L251.485 234.19C249.436 234.26 247.383 234.285 245.331 234.281ZM261.476 233.575L310.374 222.142C306.555 223.626 302.698 224.972 298.796 226.192L273.667 232.07C269.632 232.708 265.559 233.209 261.476 233.575ZM67.3097 6.39985L68.0275 6.22355L70.7212 6.94316L66.9567 7.82411C67.0728 7.34364 67.1936 6.88033 67.3097 6.39985Z" fill="url(#paint0_linear_98_2699)"/>
</g>
<defs>
<linearGradient id="paint0_linear_98_2699" x1="321.775" y1="242.921" x2="54.4238" y2="22.0325" gradientUnits="userSpaceOnUse">
<stop stop-color="#53B7EC"/>
<stop offset="1" stop-color="white"/>
</linearGradient>
<clipPath id="clip0_98_2699">
<rect width="352.03" height="139.846" fill="white" transform="translate(70.9219 0.143372) rotate(30)"/>
</clipPath>
</defs>
</svg>
