<svg width="22" height="12" viewBox="0 0 22 12" fill="none" xmlns="http://www.w3.org/2000/svg">
<path d="M21.7479 5.38253C21.7477 5.38227 21.7475 5.38197 21.7472 5.38171L17.2568 0.912967C16.9204 0.578197 16.3762 0.579443 16.0414 0.915888C15.7066 1.25229 15.7079 1.7964 16.0443 2.13122L19.0591 5.13146H0.859375C0.384742 5.13146 0 5.51621 0 5.99084C0 6.46547 0.384742 6.85021 0.859375 6.85021H19.0591L16.0443 9.85046C15.7079 10.1853 15.7066 10.7294 16.0414 11.0658C16.3763 11.4023 16.9205 11.4034 17.2568 11.0687L21.7472 6.59996C21.7475 6.5997 21.7477 6.5994 21.748 6.59915C22.0846 6.26322 22.0835 5.71734 21.7479 5.38253Z" fill="white"/>
</svg>
