<svg width="32" height="32" viewBox="0 0 32 32" fill="none" xmlns="http://www.w3.org/2000/svg">
<path d="M18.5791 31.7918C18.4458 31.8135 18.312 31.8335 18.1777 31.8518C18.312 31.8335 18.4458 31.8135 18.5791 31.7918Z" fill="#000"/>
<path d="M18.9001 31.7371C18.8364 31.7488 18.7727 31.7595 18.709 31.7705C18.7727 31.7595 18.8364 31.7488 18.9001 31.7371Z" fill="#000"/>
<path d="M17.8201 31.8962C17.6641 31.9138 17.5071 31.9294 17.3496 31.9426C17.5071 31.9294 17.6641 31.9138 17.8201 31.8962Z" fill="#000"/>
<path d="M18.1279 31.8587C18.053 31.8684 17.9775 31.8773 17.9023 31.8859C17.9775 31.8773 18.053 31.8684 18.1279 31.8587Z" fill="#000"/>
<path d="M19.335 31.6506C19.2788 31.6626 19.2224 31.6746 19.166 31.686C19.2224 31.6746 19.2788 31.6626 19.335 31.6506Z" fill="#000"/>
<path d="M20.4175 31.3821C20.3721 31.395 20.3267 31.4072 20.2812 31.4199C20.3267 31.4072 20.3721 31.395 20.4175 31.3821Z" fill="#000"/>
<path d="M20.0898 31.4714C20.0405 31.4844 19.991 31.4976 19.9414 31.51C19.991 31.4976 20.0405 31.4846 20.0898 31.4714Z" fill="#000"/>
<path d="M19.6616 31.5784C19.6094 31.5906 19.5566 31.6021 19.5039 31.6138C19.5566 31.6021 19.6094 31.5906 19.6616 31.5784Z" fill="#000"/>
<path d="M17.3447 31.9431C17.2605 31.95 17.1763 31.9561 17.0918 31.9616C17.1763 31.9561 17.2605 31.95 17.3447 31.9431Z" fill="#000"/>
<path d="M32 16C32 7.16479 24.8352 0 16 0C7.16479 0 0 7.16479 0 16C0 24.8352 7.16479 32 16 32C16.094 32 16.1875 31.998 16.2812 31.9963V19.541H12.8438V15.5349H16.2812V12.5869C16.2812 9.16797 18.3684 7.30713 21.4182 7.30713C22.8787 7.30713 24.134 7.41602 24.5 7.4646V11.0378H22.397C20.7378 11.0378 20.4165 11.8264 20.4165 12.9834V15.5349H24.3838L23.8667 19.541H20.4165V31.3818C27.1042 29.4646 32 23.3032 32 16Z" fill="#000"/>
<path d="M17.0562 31.9643C16.8896 31.9748 16.7224 31.983 16.5547 31.9885C16.7224 31.983 16.8896 31.9748 17.0562 31.9643Z" fill="#000"/>
<path d="M16.5469 31.9898C16.4585 31.9926 16.3699 31.9947 16.2812 31.9961C16.3699 31.9947 16.4585 31.9926 16.5469 31.9898Z" fill="#000"/>
</svg>
