<svg xmlns="http://www.w3.org/2000/svg" width="32" height="32.001" viewBox="0 0 32 32.001">
  <g id="linkedin-icon" transform="translate(0.001 0)">
    <path id="Subtraction_1" data-name="Subtraction 1" d="M-15040-794a15.9,15.9,0,0,1-11.315-4.686A15.89,15.89,0,0,1-15056-810a15.9,15.9,0,0,1,4.687-11.315A15.9,15.9,0,0,1-15040-826a15.9,15.9,0,0,1,11.313,4.687A15.9,15.9,0,0,1-15024-810a15.9,15.9,0,0,1-4.686,11.312A15.9,15.9,0,0,1-15040-794Zm3.37-17.7c1.089,0,1.641.751,1.641,2.233v5.445h3v-5.668c0-3.854-1.8-4.663-3.317-4.663a4.5,4.5,0,0,0-3.681,1.7v-1.391H-15042v10.017h3.008v-5.418A2.373,2.373,0,0,1-15036.629-811.695Zm-10.356-2.309v9.987h3V-814Zm1.484-4a1.5,1.5,0,0,0-1.5,1.5,1.5,1.5,0,0,0,1.5,1.5,1.5,1.5,0,0,0,1.5-1.5A1.5,1.5,0,0,0-15045.5-818Z" transform="translate(15056 826)" fill="#fff"/>
  </g>
</svg>
