<svg width="32" height="32" viewBox="0 0 32 32" fill="none" xmlns="http://www.w3.org/2000/svg">
<path d="M15.9999 0C24.837 0 32 7.164 32 16.0001C32 24.8361 24.837 32 15.9999 32C7.1629 32 0 24.836 0 16.0001C0 7.16411 7.16301 0 15.9999 0Z" fill="white"/>
<path d="M9.01604 21.9839H12.0121V11.9979H9.01604V21.9839ZM20.6881 11.652C19.2341 11.652 17.9331 12.183 17.0101 13.355V11.9651H14.0031V21.984H17.0101V16.566C17.0101 15.421 18.0592 14.304 19.3731 14.304C20.6871 14.304 21.0111 15.421 21.0111 16.538V21.9831H24.0072V16.315C24.0071 12.378 22.1431 11.652 20.6881 11.652ZM10.5 11C11.3281 11 12.0001 10.3279 12.0001 9.49992C12.0001 8.67191 11.3281 7.99998 10.5 7.99998C9.67203 7.99998 9 8.67202 9 9.50003C9 10.328 9.67203 11 10.5 11Z" fill="#020825"/>
</svg>
